<svg width="1280" height="720" xmlns="http://www.w3.org/2000/svg" xmlns:xlink="http://www.w3.org/1999/xlink" overflow="hidden"><g><rect x="0" y="0" width="1280" height="720" fill="#FFFFFF"/><path d="M33.5001 22.5001 120.417 22.5001 120.417 22.5001 157.667 22.5001 182.5 22.5001 182.5 366.667 182.5 483.709 182.5 514.167 182.5 612.5 157.667 612.5 120.417 612.5 120.417 612.5 33.5001 612.5 33.5001 514.167 33.5001 366.667 33.5001 366.667Z" stroke="#A2520C" stroke-width="2.66667" stroke-linejoin="round" stroke-miterlimit="10" fill="#DD7215" fill-rule="evenodd"/><text fill="#FFFFFF" font-family="Calibri,Calibri_MSFontService,sans-serif" font-weight="400" font-size="21" transform="translate(77.028 314)">Bundle</text><text fill="#FFFFFF" font-family="Calibri,Calibri_MSFontService,sans-serif" font-weight="400" font-size="16" transform="translate(44.528 333)">(type="document")</text><path d="M199.5 22.5001 333.083 22.5001 333.083 22.5001 390.333 22.5001 428.5 22.5001 428.5 41.75 428.5 48.2964 428.5 50.0002 428.5 55.5001 390.333 55.5001 333.083 55.5001 333.083 55.5001 199.5 55.5001 199.5 50.0002 199.5 41.75 199.5 41.75Z" stroke="#A2520C" stroke-width="2.66667" stroke-linejoin="round" stroke-miterlimit="10" fill="#DD7215" fill-rule="evenodd"/><text fill="#FFFFFF" font-family="Calibri,Calibri_MSFontService,sans-serif" font-weight="400" font-size="16" transform="translate(272.498 34)">Composition</text><text fill="#FFFFFF" font-family="Calibri,Calibri_MSFontService,sans-serif" font-weight="400" font-size="15" transform="translate(279.918 50)">(</text><text fill="#FFFFFF" font-family="Meiryo,Meiryo_MSFontService,sans-serif" font-weight="400" font-size="15" transform="translate(284.418 50)">文書構造</text><text fill="#FFFFFF" font-family="Calibri,Calibri_MSFontService,sans-serif" font-weight="400" font-size="15" transform="translate(343.084 50)">)</text><path d="M279.5 548.5 368.167 548.5 368.167 548.5 406.167 548.5 431.5 548.5 431.5 561.333 431.5 565.698 431.5 566.833 431.5 570.5 406.167 570.5 368.167 570.5 368.167 570.5 279.5 570.5 279.5 566.833 279.5 561.333 279.5 561.333Z" stroke="#437321" stroke-width="2.66667" stroke-linejoin="round" stroke-miterlimit="10" fill="#5E9E31" fill-rule="evenodd"/><text fill="#FFFFFF" font-family="Calibri,Calibri_MSFontService,sans-serif" font-weight="400" font-size="15" transform="translate(288.588 562)">PCI</text><text fill="#FFFFFF" font-family="Meiryo,Meiryo_MSFontService,sans-serif" font-weight="400" font-size="15" transform="translate(307.588 562)">合併症</text><path d="M450.5 451.5 539.167 451.5 539.167 451.5 577.167 451.5 602.5 451.5 602.5 472.5 602.5 479.642 602.5 481.5 602.5 487.5 577.167 487.5 539.167 487.5 539.167 487.5 450.5 487.5 450.5 481.5 450.5 472.5 450.5 472.5Z" stroke="#437321" stroke-width="2.66667" stroke-linejoin="round" stroke-miterlimit="10" fill="#5E9E31" fill-rule="evenodd"/><text fill="#FFFFFF" font-family="Calibri,Calibri_MSFontService,sans-serif" font-weight="400" font-size="15" transform="translate(459.501 464)">PCI</text><text fill="#FFFFFF" font-family="Meiryo,Meiryo_MSFontService,sans-serif" font-weight="400" font-size="15" transform="translate(478.501 464)">処置詳細［拡張</text><text fill="#FFFFFF" font-family="Meiryo,Meiryo_MSFontService,sans-serif" font-weight="400" font-size="15" transform="translate(459.501 480)">項目］</text><path d="M450.5 385.5 539.167 385.5 539.167 385.5 577.167 385.5 602.5 385.5 602.5 398.917 602.5 403.479 602.5 404.667 602.5 408.5 577.167 408.5 539.167 408.5 539.167 408.5 450.5 408.5 450.5 404.667 450.5 398.917 450.5 398.917Z" stroke="#437321" stroke-width="2.66667" stroke-linejoin="round" stroke-miterlimit="10" fill="#5E9E31" fill-rule="evenodd"/><text fill="#FFFFFF" font-family="Meiryo,Meiryo_MSFontService,sans-serif" font-weight="400" font-size="15" transform="translate(459.501 399)">冠動脈病変</text><path d="M450.5 418.5 539.167 418.5 539.167 418.5 577.167 418.5 602.5 418.5 602.5 431.333 602.5 435.698 602.5 436.833 602.5 440.5 577.167 440.5 539.167 440.5 539.167 440.5 450.5 440.5 450.5 436.833 450.5 431.333 450.5 431.333Z" stroke="#437321" stroke-width="2.66667" stroke-linejoin="round" stroke-miterlimit="10" fill="#5E9E31" fill-rule="evenodd"/><text fill="#FFFFFF" font-family="Meiryo,Meiryo_MSFontService,sans-serif" font-weight="400" font-size="15" transform="translate(459.501 432)">心内圧データ</text><path d="M280.5 517.5 369.167 517.5 369.167 517.5 407.167 517.5 432.5 517.5 432.5 530.917 432.5 535.479 432.5 536.667 432.5 540.5 407.167 540.5 369.167 540.5 369.167 540.5 280.5 540.5 280.5 536.667 280.5 530.917 280.5 530.917Z" stroke="#437321" stroke-width="2.66667" stroke-linejoin="round" stroke-miterlimit="10" fill="#5E9E31" fill-rule="evenodd"/><text fill="#FFFFFF" font-family="Meiryo,Meiryo_MSFontService,sans-serif" font-weight="400" font-size="15" transform="translate(289.609 532)">併存疾患情報</text><path d="M618.5 516.5 707.167 516.5 707.167 516.5 745.167 516.5 770.5 516.5 770.5 529.917 770.5 534.479 770.5 535.667 770.5 539.5 745.167 539.5 707.167 539.5 707.167 539.5 618.5 539.5 618.5 535.667 618.5 529.917 618.5 529.917Z" stroke="#437321" stroke-width="2.66667" stroke-linejoin="round" stroke-miterlimit="10" fill="#5E9E31" fill-rule="evenodd"/><text fill="#FFFFFF" font-family="Meiryo,Meiryo_MSFontService,sans-serif" font-weight="400" font-size="15" transform="translate(627.875 530)">循環器疾患既往歴</text><path d="M285.5 326.5 374.167 326.5 374.167 326.5 412.167 326.5 437.5 326.5 437.5 339.333 437.5 343.698 437.5 344.833 437.5 348.5 412.167 348.5 374.167 348.5 374.167 348.5 285.5 348.5 285.5 344.833 285.5 339.333 285.5 339.333Z" stroke="#437321" stroke-width="2.66667" stroke-linejoin="round" stroke-miterlimit="10" fill="#5E9E31" fill-rule="evenodd"/><text fill="#FFFFFF" font-family="Meiryo,Meiryo_MSFontService,sans-serif" font-weight="400" font-size="15" transform="translate(294.181 340)">患者付帯情報</text><path d="M284.5 385.5 373.167 385.5 373.167 385.5 411.167 385.5 436.5 385.5 436.5 398.917 436.5 403.479 436.5 404.667 436.5 408.5 411.167 408.5 373.167 408.5 373.167 408.5 284.5 408.5 284.5 404.667 284.5 398.917 284.5 398.917Z" stroke="#437321" stroke-width="2.66667" stroke-linejoin="round" stroke-miterlimit="10" fill="#5E9E31" fill-rule="evenodd"/><text fill="#FFFFFF" font-family="Meiryo,Meiryo_MSFontService,sans-serif" font-weight="400" font-size="15" transform="translate(293.683 399)">カテーテル</text><path d="M283.5 418.5 372.167 418.5 372.167 418.5 410.167 418.5 435.5 418.5 435.5 431.333 435.5 435.698 435.5 436.833 435.5 440.5 410.167 440.5 372.167 440.5 372.167 440.5 283.5 440.5 283.5 436.833 283.5 431.333 283.5 431.333Z" stroke="#437321" stroke-width="2.66667" stroke-linejoin="round" stroke-miterlimit="10" fill="#5E9E31" fill-rule="evenodd"/><text fill="#FFFFFF" font-family="Calibri,Calibri_MSFontService,sans-serif" font-weight="400" font-size="15" transform="translate(292.609 433)">LVG</text><path d="M280.5 640.5 369.167 640.5 369.167 640.5 407.167 640.5 432.5 640.5 432.5 653.917 432.5 658.479 432.5 659.667 432.5 663.5 407.167 663.5 369.167 663.5 369.167 663.5 280.5 663.5 280.5 659.667 280.5 653.917 280.5 653.917Z" stroke="#437321" stroke-width="2.66667" stroke-linejoin="round" stroke-miterlimit="10" fill="#5E9E31" fill-rule="evenodd"/><text fill="#FFFFFF" font-family="Calibri,Calibri_MSFontService,sans-serif" font-weight="400" font-size="15" transform="translate(289.247 654)">PCI</text><text fill="#FFFFFF" font-family="Meiryo,Meiryo_MSFontService,sans-serif" font-weight="400" font-size="15" transform="translate(308.247 654)">処置</text><path d="M284.5 69.5001 369.083 69.5001 369.083 69.5001 405.333 69.5001 429.5 69.5001 429.5 89.3334 429.5 96.0782 429.5 97.8334 429.5 103.5 405.333 103.5 369.083 103.5 369.083 103.5 284.5 103.5 284.5 97.8334 284.5 89.3334 284.5 89.3334Z" stroke="#A2520C" stroke-width="2.66667" stroke-linejoin="round" stroke-miterlimit="10" fill="#DD7215" fill-rule="evenodd"/><text fill="#FFFFFF" font-family="Calibri,Calibri_MSFontService,sans-serif" font-weight="400" font-size="16" transform="translate(333.374 82)">Patient</text><text fill="#FFFFFF" font-family="Calibri,Calibri_MSFontService,sans-serif" font-weight="400" font-size="15" transform="translate(322.874 98)">(</text><text fill="#FFFFFF" font-family="Meiryo,Meiryo_MSFontService,sans-serif" font-weight="400" font-size="15" transform="translate(327.374 98)">患者情報</text><text fill="#FFFFFF" font-family="Calibri,Calibri_MSFontService,sans-serif" font-weight="400" font-size="15" transform="translate(386.04 98)">)</text><path d="M285.5 109.5 370.083 109.5 370.083 109.5 406.333 109.5 430.5 109.5 430.5 128.75 430.5 135.296 430.5 137 430.5 142.5 406.333 142.5 370.083 142.5 370.083 142.5 285.5 142.5 285.5 137 285.5 128.75 285.5 128.75Z" stroke="#A2520C" stroke-width="2.66667" stroke-linejoin="round" stroke-miterlimit="10" fill="#DD7215" fill-rule="evenodd"/><text fill="#FFFFFF" font-family="Calibri,Calibri_MSFontService,sans-serif" font-weight="400" font-size="16" transform="translate(318.84 122)">Practitioner</text><text fill="#FFFFFF" font-family="Calibri,Calibri_MSFontService,sans-serif" font-weight="400" font-size="15" transform="translate(316.007 138)">(</text><text fill="#FFFFFF" font-family="Meiryo,Meiryo_MSFontService,sans-serif" font-weight="400" font-size="15" transform="translate(320.507 138)">作成責任者</text><text fill="#FFFFFF" font-family="Calibri,Calibri_MSFontService,sans-serif" font-weight="400" font-size="15" transform="translate(393.84 138)">)</text><path d="M283.5 147.5 368.083 147.5 368.083 147.5 404.333 147.5 428.5 147.5 428.5 166.75 428.5 173.296 428.5 175 428.5 180.5 404.333 180.5 368.083 180.5 368.083 180.5 283.5 180.5 283.5 175 283.5 166.75 283.5 166.75Z" stroke="#A2520C" stroke-width="2.66667" stroke-linejoin="round" stroke-miterlimit="10" fill="#DD7215" fill-rule="evenodd"/><text fill="#FFFFFF" font-family="Calibri,Calibri_MSFontService,sans-serif" font-weight="400" font-size="16" transform="translate(314.021 160)">Organization</text><text fill="#FFFFFF" font-family="Calibri,Calibri_MSFontService,sans-serif" font-weight="400" font-size="15" transform="translate(307.101 176)">(</text><text fill="#FFFFFF" font-family="Meiryo,Meiryo_MSFontService,sans-serif" font-weight="400" font-size="15" transform="translate(311.601 176)">作成医療機関</text><text fill="#FFFFFF" font-family="Calibri,Calibri_MSFontService,sans-serif" font-weight="400" font-size="15" transform="translate(399.601 176)">)</text><path d="M462.5 109.5 547.083 109.5 547.083 109.5 583.333 109.5 607.5 109.5 607.5 128.75 607.5 135.296 607.5 137 607.5 142.5 583.333 142.5 547.083 142.5 547.083 142.5 462.5 142.5 462.5 137 462.5 128.75 462.5 128.75Z" stroke="#A2520C" stroke-width="2.66667" stroke-linejoin="round" stroke-miterlimit="10" fill="#DD7215" fill-rule="evenodd"/><text fill="#FFFFFF" font-family="Calibri,Calibri_MSFontService,sans-serif" font-weight="400" font-size="16" transform="translate(512.388 122)">Device</text><text fill="#FFFFFF" font-family="Calibri,Calibri_MSFontService,sans-serif" font-weight="400" font-size="15" transform="translate(485.634 138)">(</text><text fill="#FFFFFF" font-family="Meiryo,Meiryo_MSFontService,sans-serif" font-weight="400" font-size="15" transform="translate(490.134 138)">作成システム</text><text fill="#FFFFFF" font-family="Calibri,Calibri_MSFontService,sans-serif" font-weight="400" font-size="15" transform="translate(578.134 138)">)</text><path d="M284.5 186.5 369.083 186.5 369.083 186.5 405.333 186.5 429.5 186.5 429.5 205.75 429.5 212.296 429.5 214 429.5 219.5 405.333 219.5 369.083 219.5 369.083 219.5 284.5 219.5 284.5 214 284.5 205.75 284.5 205.75Z" stroke="#A2520C" stroke-width="2.66667" stroke-linejoin="round" stroke-miterlimit="10" fill="#DD7215" fill-rule="evenodd"/><text fill="#FFFFFF" font-family="Calibri,Calibri_MSFontService,sans-serif" font-weight="400" font-size="16" transform="translate(315.127 198)">Organization</text><text fill="#FFFFFF" font-family="Calibri,Calibri_MSFontService,sans-serif" font-weight="400" font-size="15" transform="translate(308.207 214)">(</text><text fill="#FFFFFF" font-family="Meiryo,Meiryo_MSFontService,sans-serif" font-weight="400" font-size="15" transform="translate(312.707 214)">管理医療機関</text><text fill="#FFFFFF" font-family="Calibri,Calibri_MSFontService,sans-serif" font-weight="400" font-size="15" transform="translate(400.707 214)">)</text><path d="M520.5 69.5001 605.083 69.5001 605.083 69.5001 641.333 69.5001 665.5 69.5001 665.5 88.7501 665.5 95.2965 665.5 97.0001 665.5 102.5 641.333 102.5 605.083 102.5 605.083 102.5 520.5 102.5 520.5 97.0001 520.5 88.7501 520.5 88.7501Z" stroke="#A2520C" stroke-width="2.66667" stroke-linejoin="round" stroke-miterlimit="10" fill="#DD7215" fill-rule="evenodd"/><text fill="#FFFFFF" font-family="Calibri,Calibri_MSFontService,sans-serif" font-weight="400" font-size="16" transform="translate(550.973 82)">Organization</text><text fill="#FFFFFF" font-family="Calibri,Calibri_MSFontService,sans-serif" font-weight="400" font-size="15" transform="translate(566.053 98)">(</text><text fill="#FFFFFF" font-family="Meiryo,Meiryo_MSFontService,sans-serif" font-weight="400" font-size="15" transform="translate(570.553 98)">所属科</text><text fill="#FFFFFF" font-family="Calibri,Calibri_MSFontService,sans-serif" font-weight="400" font-size="15" transform="translate(614.553 98)">)</text><path d="M284.5 225.5 369.083 225.5 369.083 225.5 405.333 225.5 429.5 225.5 429.5 244.75 429.5 251.296 429.5 253 429.5 258.5 405.333 258.5 369.083 258.5 369.083 258.5 284.5 258.5 284.5 253 284.5 244.75 284.5 244.75Z" stroke="#A2520C" stroke-width="2.66667" stroke-linejoin="round" stroke-miterlimit="10" fill="#DD7215" fill-rule="evenodd"/><text fill="#FFFFFF" font-family="Calibri,Calibri_MSFontService,sans-serif" font-weight="400" font-size="16" transform="translate(318.343 238)">Practitioner</text><text fill="#FFFFFF" font-family="Calibri,Calibri_MSFontService,sans-serif" font-weight="400" font-size="15" transform="translate(300.843 254)">(</text><text fill="#FFFFFF" font-family="Meiryo,Meiryo_MSFontService,sans-serif" font-weight="400" font-size="15" transform="translate(305.343 254)">文書内容責任者</text><text fill="#FFFFFF" font-family="Calibri,Calibri_MSFontService,sans-serif" font-weight="400" font-size="15" transform="translate(408.009 254)">)</text><path d="M520.5 264.5 605.083 264.5 605.083 264.5 641.333 264.5 665.5 264.5 665.5 283.75 665.5 290.297 665.5 292 665.5 297.5 641.333 297.5 605.083 297.5 605.083 297.5 520.5 297.5 520.5 292 520.5 283.75 520.5 283.75Z" stroke="#A2520C" stroke-width="2.66667" stroke-linejoin="round" stroke-miterlimit="10" fill="#DD7215" fill-rule="evenodd"/><text fill="#FFFFFF" font-family="Calibri,Calibri_MSFontService,sans-serif" font-weight="400" font-size="16" transform="translate(539.809 277)">PractitionerRole</text><text fill="#FFFFFF" font-family="Calibri,Calibri_MSFontService,sans-serif" font-weight="400" font-size="15" transform="translate(536.723 293)">(</text><text fill="#FFFFFF" font-family="Meiryo,Meiryo_MSFontService,sans-serif" font-weight="400" font-size="15" transform="translate(541.223 293)">検査実施者役割</text><text fill="#FFFFFF" font-family="Calibri,Calibri_MSFontService,sans-serif" font-weight="400" font-size="15" transform="translate(643.889 293)">)</text><path d="M757.5 265.5 842.083 265.5 842.083 265.5 878.333 265.5 902.5 265.5 902.5 284.167 902.5 290.515 902.5 292.167 902.5 297.5 878.333 297.5 842.083 297.5 842.083 297.5 757.5 297.5 757.5 292.167 757.5 284.167 757.5 284.167Z" stroke="#A2520C" stroke-width="2.66667" stroke-linejoin="round" stroke-miterlimit="10" fill="#DD7215" fill-rule="evenodd"/><text fill="#FFFFFF" font-family="Calibri,Calibri_MSFontService,sans-serif" font-weight="400" font-size="16" transform="translate(791.121 277)">Practitioner</text><text fill="#FFFFFF" font-family="Calibri,Calibri_MSFontService,sans-serif" font-weight="400" font-size="15" transform="translate(788.288 293)">(</text><text fill="#FFFFFF" font-family="Meiryo,Meiryo_MSFontService,sans-serif" font-weight="400" font-size="15" transform="translate(792.788 293)">検査実施者</text><text fill="#FFFFFF" font-family="Calibri,Calibri_MSFontService,sans-serif" font-weight="400" font-size="15" transform="translate(866.121 293)">)</text><path d="M847.5 391.5 932.083 391.5 932.083 391.5 968.333 391.5 992.5 391.5 992.5 410.75 992.5 417.297 992.5 419 992.5 424.5 968.333 424.5 932.083 424.5 932.083 424.5 847.5 424.5 847.5 419 847.5 410.75 847.5 410.75Z" stroke="#A2520C" stroke-width="2.66667" stroke-linejoin="round" stroke-miterlimit="10" fill="#DD7215" fill-rule="evenodd"/><text fill="#FFFFFF" font-family="Calibri,Calibri_MSFontService,sans-serif" font-weight="400" font-size="16" transform="translate(879.573 403)">Observation</text><text fill="#FFFFFF" font-family="Calibri,Calibri_MSFontService,sans-serif" font-weight="400" font-size="15" transform="translate(867.986 419)">(</text><text fill="#FFFFFF" font-family="Meiryo,Meiryo_MSFontService,sans-serif" font-weight="400" font-size="15" transform="translate(872.486 419)">測定値</text><text fill="#FFFFFF" font-family="Calibri,Calibri_MSFontService,sans-serif" font-weight="400" font-size="15" transform="translate(916.486 419)">/</text><text fill="#FFFFFF" font-family="Meiryo,Meiryo_MSFontService,sans-serif" font-weight="400" font-size="15" transform="translate(922.153 419)">解析値</text><text fill="#FFFFFF" font-family="Calibri,Calibri_MSFontService,sans-serif" font-weight="400" font-size="15" transform="translate(966.153 419)">)</text><path d="M618.5 453.5 707.167 453.5 707.167 453.5 745.167 453.5 770.5 453.5 770.5 473.917 770.5 480.86 770.5 482.667 770.5 488.5 745.167 488.5 707.167 488.5 707.167 488.5 618.5 488.5 618.5 482.667 618.5 473.917 618.5 473.917Z" stroke="#437321" stroke-width="2.66667" stroke-linejoin="round" stroke-miterlimit="10" fill="#5E9E31" fill-rule="evenodd"/><text fill="#FFFFFF" font-family="Calibri,Calibri_MSFontService,sans-serif" font-weight="400" font-size="14" transform="translate(622.054 466)">PCI</text><text fill="#FFFFFF" font-family="Meiryo,Meiryo_MSFontService,sans-serif" font-weight="400" font-size="14" transform="translate(640.221 466)">処置詳細ステント基</text><text fill="#FFFFFF" font-family="Meiryo,Meiryo_MSFontService,sans-serif" font-weight="400" font-size="14" transform="translate(622.054 481)">本情報［拡張項目］</text><path d="M618.5 385.5 707.167 385.5 707.167 385.5 745.167 385.5 770.5 385.5 770.5 398.917 770.5 403.479 770.5 404.667 770.5 408.5 745.167 408.5 707.167 408.5 707.167 408.5 618.5 408.5 618.5 404.667 618.5 398.917 618.5 398.917Z" stroke="#437321" stroke-width="2.66667" stroke-linejoin="round" stroke-miterlimit="10" fill="#5E9E31" fill-rule="evenodd"/><text fill="#FFFFFF" font-family="Meiryo,Meiryo_MSFontService,sans-serif" font-weight="400" font-size="12" transform="translate(627.875 399)">冠動脈病変［拡張項目</text><text fill="#FFFFFF" font-family="Meiryo,Meiryo_MSFontService,sans-serif" font-weight="400" font-size="12" transform="translate(750.541 399)">］</text><text font-family="IBM Plex Sans,IBM Plex Sans_MSFontService,sans-serif" font-weight="400" font-size="14" transform="translate(213.59 79)">subject</text><text font-family="IBM Plex Sans,IBM Plex Sans_MSFontService,sans-serif" font-weight="400" font-size="14" transform="translate(213.201 118)">author</text><path d="M0-1 30.045-1 30.045 69.8232 28.045 69.8232 28.045 0 29.045 1 0 1ZM33.045 68.4899 29.045 76.4899 25.045 68.4899Z" transform="matrix(1.83697e-16 1 1 -1.83697e-16 208 57)"/><path d="M0-1 69.6249-1 69.6249 70.2897 67.6249 70.2897 67.6249 0 68.6249 1 0 1ZM72.6249 68.9563 68.6249 76.9563 64.6249 68.9563Z" transform="matrix(1.83697e-16 1 1 -1.83697e-16 208 57.0001)"/><path d="M0-1 106.924-1 106.924 69.2151 104.924 69.2151 104.924 0 105.924 1 0 1ZM109.924 67.8818 105.924 75.8818 101.924 67.8818Z" transform="matrix(1.83697e-16 1 1 -1.83697e-16 207 58)"/><text font-family="IBM Plex Sans,IBM Plex Sans_MSFontService,sans-serif" font-weight="400" font-size="14" transform="translate(213.201 157)">author</text><text font-family="IBM Plex Sans,IBM Plex Sans_MSFontService,sans-serif" font-weight="400" font-size="14" transform="translate(213.201 195)">custodian</text><path d="M0-1 146.096-1 146.096 69.8232 144.096 69.8232 144.096 0 145.096 1 0 1ZM149.096 68.4898 145.096 76.4898 141.096 68.4898Z" transform="matrix(1.83697e-16 1 1 -1.83697e-16 208 57)"/><text font-family="IBM Plex Sans,IBM Plex Sans_MSFontService,sans-serif" font-weight="400" font-size="14" transform="translate(213.201 221)">attester.</text><text font-family="IBM Plex Sans,IBM Plex Sans_MSFontService,sans-serif" font-weight="400" font-size="14" transform="translate(213.201 236)">party</text><path d="M0-1 185.572-1 185.572 69.7921 183.572 69.7921 183.572 0 184.572 1 0 1ZM188.572 68.4587 184.572 76.4587 180.572 68.4587Z" transform="matrix(1.83697e-16 1 1 -1.83697e-16 208 57)"/><path d="M0-1 225.151-1 225.151 69.7921 223.151 69.7921 223.151 0 224.151 1 0 1ZM228.151 68.4587 224.151 76.4587 220.151 68.4587Z" transform="matrix(1.83697e-16 1 1 -1.83697e-16 208 57)"/><text font-family="IBM Plex Sans,IBM Plex Sans_MSFontService,sans-serif" font-weight="400" font-size="14" transform="translate(215.143 260)">event.</text><text font-family="IBM Plex Sans,IBM Plex Sans_MSFontService,sans-serif" font-weight="400" font-size="14" transform="translate(215.143 275)">detail</text><text font-family="IBM Plex Sans,IBM Plex Sans_MSFontService,sans-serif" font-weight="400" font-size="14" transform="translate(675.916 274)">practitioner</text><text font-family="IBM Plex Sans,IBM Plex Sans_MSFontService,sans-serif" font-weight="400" font-size="14" transform="translate(435.187 63)">managing</text><text font-family="IBM Plex Sans,IBM Plex Sans_MSFontService,sans-serif" font-weight="400" font-size="14" transform="translate(435.187 80)">Organization</text><text font-family="IBM Plex Sans,IBM Plex Sans_MSFontService,sans-serif" font-weight="400" font-size="14" transform="translate(438.868 131)">or</text><text font-family="IBM Plex Sans,IBM Plex Sans_MSFontService,sans-serif" font-weight="400" font-size="14" transform="translate(212.506 539)">section</text><path d="M0-1 486.96-1 486.96 54.5252 484.96 54.5252 484.96 0 485.96 1 0 1ZM489.96 53.1918 485.96 61.1918 481.96 53.1918Z" transform="matrix(1.83697e-16 1 1 -1.83697e-16 207 56.9999)"/><path d="M0-1 350.179-1 350.179 54.4631 348.179 54.4631 348.179 0 349.179 1 0 1ZM353.179 53.1298 349.179 61.1298 345.179 53.1298Z" transform="matrix(1.83697e-16 1 1 -1.83697e-16 207 58)"/><text font-family="IBM Plex Sans,IBM Plex Sans_MSFontService,sans-serif" font-weight="400" font-size="14" transform="translate(214.19 400)">section</text><rect x="268.5" y="316.5" width="513" height="182" stroke="#000000" stroke-width="3" stroke-linecap="square" stroke-miterlimit="8" stroke-dasharray="9 3" fill="none"/><rect x="268.5" y="507.5" width="515" height="72" stroke="#000000" stroke-width="3" stroke-linecap="square" stroke-miterlimit="8" stroke-dasharray="9 3" fill="none"/><path d="M0-1 596.162-1 596.162 66.2747 594.162 66.2747 594.162 0 595.162 1 0 1ZM599.162 64.9413 595.162 72.9413 591.162 64.9413Z" transform="matrix(1.83697e-16 1 1 -1.83697e-16 207 55.9999)"/><text font-family="IBM Plex Sans,IBM Plex Sans_MSFontService,sans-serif" font-weight="400" font-size="14" transform="translate(214.546 643)">section</text><text font-family="IBM Plex Sans,IBM Plex Sans_MSFontService,sans-serif" font-weight="400" font-size="14" transform="translate(801.889 399)">entry</text><path d="M998.5 34.5001 1032.33 34.5001 1032.33 34.5001 1046.83 34.5001 1056.5 34.5001 1056.5 44.4167 1056.5 47.7891 1056.5 48.6667 1056.5 51.5001 1046.83 51.5001 1032.33 51.5001 1032.33 51.5001 998.5 51.5001 998.5 48.6667 998.5 44.4167 998.5 44.4167Z" stroke="#A2520C" stroke-width="2.66667" stroke-linejoin="round" stroke-miterlimit="10" fill="#DD7215" fill-rule="evenodd"/><path d="M998.5 61.5001 1032.33 61.5001 1032.33 61.5001 1046.83 61.5001 1056.5 61.5001 1056.5 71.4167 1056.5 74.7891 1056.5 75.6667 1056.5 78.5001 1046.83 78.5001 1032.33 78.5001 1032.33 78.5001 998.5 78.5001 998.5 75.6667 998.5 71.4167 998.5 71.4167Z" stroke="#437321" stroke-width="2.66667" stroke-linejoin="round" stroke-miterlimit="10" fill="#5E9E31" fill-rule="evenodd"/><text font-family="MS Gothic,MS Gothic_MSFontService,sans-serif" font-weight="400" font-size="14" transform="translate(1059.32 47)">：</text><text font-family="IBM Plex Sans,IBM Plex Sans_MSFontService,sans-serif" font-weight="400" font-size="14" transform="translate(1073.32 47)">FHIR</text><text font-family="MS Gothic,MS Gothic_MSFontService,sans-serif" font-weight="400" font-size="14" transform="translate(1105.65 47)">リソース</text><text font-family="MS Gothic,MS Gothic_MSFontService,sans-serif" font-weight="400" font-size="14" transform="translate(1059.32 73)">：</text><text font-family="IBM Plex Sans,IBM Plex Sans_MSFontService,sans-serif" font-weight="400" font-size="14" transform="translate(1073.32 73)">Composition</text><text font-family="MS Gothic,MS Gothic_MSFontService,sans-serif" font-weight="400" font-size="14" transform="translate(1152.48 73)">リソースの</text><text font-family="MS Gothic,MS Gothic_MSFontService,sans-serif" font-weight="400" font-size="14" transform="translate(1073.32 90)">セクション</text><path d="M0.0024329-0.999997 83.9999-0.795639 83.9951 1.20435-0.0024329 0.999997ZM82.674-3.79887 90.6642 0.220577 82.6545 4.2011Z" transform="matrix(1 0 0 -1 429 86.2206)"/><path d="M665.003 280 750.049 280.217 750.044 282.217 664.997 282ZM748.724 277.213 756.714 281.234 748.704 285.213Z"/><path d="M781 406 814.787 406 814.787 407.148 813.787 406.148 839.908 406.148 839.908 408.148 812.787 408.148 812.787 407 813.787 408 781 408ZM838.574 403.148 846.574 407.148 838.574 411.148Z"/><path d="M793.5 331.5 825.667 331.5 825.667 331.5 873.917 331.5 986.5 331.5 986.5 338.5 986.5 338.5 986.5 349 986.5 373.5 873.917 373.5 825.667 373.5 825.667 373.5 793.5 373.5 793.5 349 772.091 333.933 793.5 338.5Z" stroke="#172C51" stroke-width="1.33333" stroke-miterlimit="8" fill="#4472C4" fill-rule="evenodd"/><text fill="#FFFFFF" font-family="Yu Gothic,Yu Gothic_MSFontService,sans-serif" font-weight="400" font-size="13" transform="translate(802.39 348)">component/</text><text fill="#FFFFFF" font-family="Yu Gothic,Yu Gothic_MSFontService,sans-serif" font-weight="400" font-size="13" transform="translate(875.557 348)">structuredBody</text><text fill="#FFFFFF" font-family="Yu Gothic,Yu Gothic_MSFontService,sans-serif" font-weight="400" font-size="13" transform="translate(967.057 348)">/</text><text fill="#FFFFFF" font-family="Yu Gothic,Yu Gothic_MSFontService,sans-serif" font-weight="400" font-size="13" transform="translate(802.39 364)">component/section</text><path d="M692.5 75.5001 708.833 75.5001 708.833 75.5001 733.333 75.5001 790.5 75.5001 790.5 88.9168 790.5 88.9168 790.5 94.6668 790.5 98.5001 733.333 98.5001 708.833 98.5001 708.833 98.5001 692.5 98.5001 692.5 94.6668 671.683 88.7209 692.5 88.9168Z" stroke="#172C51" stroke-width="1.33333" stroke-miterlimit="8" fill="#4472C4" fill-rule="evenodd"/><text fill="#FFFFFF" font-family="Yu Gothic,Yu Gothic_MSFontService,sans-serif" font-weight="400" font-size="13" transform="translate(701.696 91)">recordTarget</text><path d="M633.5 112.5 644.667 112.5 644.667 112.5 661.417 112.5 700.5 112.5 700.5 125.917 700.5 125.917 700.5 131.667 700.5 135.5 661.417 135.5 644.667 135.5 644.667 135.5 633.5 135.5 633.5 131.667 610.67 124.857 633.5 125.917Z" stroke="#172C51" stroke-width="1.33333" stroke-miterlimit="8" fill="#4472C4" fill-rule="evenodd"/><text fill="#FFFFFF" font-family="Yu Gothic,Yu Gothic_MSFontService,sans-serif" font-weight="400" font-size="13" transform="translate(642.695 128)">author</text><path d="M451.5 154.5 463 154.5 463 154.5 480.25 154.5 520.5 154.5 520.5 167.917 520.5 167.917 520.5 173.667 520.5 177.5 480.25 177.5 463 177.5 463 177.5 451.5 177.5 451.5 173.667 428.173 170.311 451.5 167.917Z" stroke="#172C51" stroke-width="1.33333" stroke-miterlimit="8" fill="#4472C4" fill-rule="evenodd"/><text fill="#FFFFFF" font-family="Yu Gothic,Yu Gothic_MSFontService,sans-serif" font-weight="400" font-size="13" transform="translate(460.737 169)">author</text><path d="M451.5 188.5 465.5 188.5 465.5 188.5 486.5 188.5 535.5 188.5 535.5 201.917 535.5 201.917 535.5 207.667 535.5 211.5 486.5 211.5 465.5 211.5 465.5 211.5 451.5 211.5 451.5 207.667 430.211 202.584 451.5 201.917Z" stroke="#172C51" stroke-width="1.33333" stroke-miterlimit="8" fill="#4472C4" fill-rule="evenodd"/><text fill="#FFFFFF" font-family="Yu Gothic,Yu Gothic_MSFontService,sans-serif" font-weight="400" font-size="13" transform="translate(460.737 203)">custodian</text><path d="M451.5 222.5 469.833 222.5 469.833 222.5 497.333 222.5 561.5 222.5 561.5 235.917 561.5 235.917 561.5 241.667 561.5 245.5 497.333 245.5 469.833 245.5 469.833 245.5 451.5 245.5 451.5 241.667 431.603 235.721 451.5 235.917Z" stroke="#172C51" stroke-width="1.33333" stroke-miterlimit="8" fill="#4472C4" fill-rule="evenodd"/><text fill="#FFFFFF" font-family="Yu Gothic,Yu Gothic_MSFontService,sans-serif" font-weight="400" font-size="13" transform="translate(460.737 238)">authenticator</text><path d="M840.5 214.5 861.833 214.5 861.833 214.5 893.833 214.5 968.5 214.5 968.5 230.25 968.5 230.25 968.5 237 968.5 241.5 893.833 241.5 858.848 262.502 861.833 241.5 840.5 241.5 840.5 237 840.5 230.25 840.5 230.25Z" stroke="#172C51" stroke-width="1.33333" stroke-miterlimit="8" fill="#4472C4" fill-rule="evenodd"/><text fill="#FFFFFF" font-family="Yu Gothic,Yu Gothic_MSFontService,sans-serif" font-weight="400" font-size="13" transform="translate(849.749 232)">documentationOf</text><path d="M1015.5 392.5 1048 392.5 1048 392.5 1096.75 392.5 1210.5 392.5 1210.5 401.167 1210.5 401.167 1210.5 414.167 1210.5 444.5 1096.75 444.5 1048 444.5 1048 444.5 1015.5 444.5 1015.5 414.167 994.945 406.524 1015.5 401.167Z" stroke="#172C51" stroke-width="1.33333" stroke-miterlimit="8" fill="#4472C4" fill-rule="evenodd"/><text fill="#FFFFFF" font-family="Yu Gothic,Yu Gothic_MSFontService,sans-serif" font-weight="400" font-size="13" transform="translate(1024.97 406)">component/</text><text fill="#FFFFFF" font-family="Yu Gothic,Yu Gothic_MSFontService,sans-serif" font-weight="400" font-size="13" transform="translate(1098.13 406)">structuredBody</text><text fill="#FFFFFF" font-family="Yu Gothic,Yu Gothic_MSFontService,sans-serif" font-weight="400" font-size="13" transform="translate(1189.63 406)">/</text><text fill="#FFFFFF" font-family="Yu Gothic,Yu Gothic_MSFontService,sans-serif" font-weight="400" font-size="13" transform="translate(1024.97 422)">component/section/entry/ob</text><text fill="#FFFFFF" font-family="Yu Gothic,Yu Gothic_MSFontService,sans-serif" font-weight="400" font-size="13" transform="translate(1024.97 437)">servation</text><path d="M998.5 100.5 1008.17 100.5 1008.17 100.5 1022.67 100.5 1056.5 100.5 1056.5 111 1056.5 111 1056.5 115.5 1056.5 118.5 1022.67 118.5 1008.17 118.5 1008.17 118.5 998.5 118.5 998.5 115.5 986.18 110.847 998.5 111Z" stroke="#172C51" stroke-width="1.33333" stroke-miterlimit="8" fill="#4472C4" fill-rule="evenodd"/><text font-family="MS Gothic,MS Gothic_MSFontService,sans-serif" font-weight="400" font-size="14" transform="translate(1059.45 115)">：</text><text font-family="IBM Plex Sans,IBM Plex Sans_MSFontService,sans-serif" font-weight="400" font-size="14" transform="translate(1073.45 115)">CDA R2</text><text font-family="MS Gothic,MS Gothic_MSFontService,sans-serif" font-weight="400" font-size="14" transform="translate(1121.11 115)">の対応要素</text><text font-family="IBM Plex Sans,IBM Plex Sans_MSFontService,sans-serif" font-weight="400" font-size="14" transform="translate(1059.45 132)">(/</text><text font-family="IBM Plex Sans,IBM Plex Sans_MSFontService,sans-serif" font-weight="400" font-size="14" transform="translate(1069.45 132)">ClinicalDocument</text><text font-family="IBM Plex Sans,IBM Plex Sans_MSFontService,sans-serif" font-weight="400" font-size="14" transform="translate(1180.11 132)">/</text><text font-family="MS Gothic,MS Gothic_MSFontService,sans-serif" font-weight="400" font-size="14" transform="translate(1185.45 132)">は省略</text><text font-family="IBM Plex Sans,IBM Plex Sans_MSFontService,sans-serif" font-weight="400" font-size="14" transform="translate(1227.45 132)">)</text><path d="M284.5 265.5 369.083 265.5 369.083 265.5 405.333 265.5 429.5 265.5 429.5 284.75 429.5 291.297 429.5 293 429.5 298.5 405.333 298.5 369.083 298.5 369.083 298.5 284.5 298.5 284.5 293 284.5 284.75 284.5 284.75Z" stroke="#A2520C" stroke-width="2.66667" stroke-linejoin="round" stroke-miterlimit="10" fill="#DD7215" fill-rule="evenodd"/><text fill="#FFFFFF" font-family="Calibri,Calibri_MSFontService,sans-serif" font-weight="400" font-size="16" transform="translate(323.009 277)">Procedure</text><text fill="#FFFFFF" font-family="Calibri,Calibri_MSFontService,sans-serif" font-weight="400" font-size="15" transform="translate(308.176 293)">(</text><text fill="#FFFFFF" font-family="Meiryo,Meiryo_MSFontService,sans-serif" font-weight="400" font-size="15" transform="translate(312.676 293)">検査実施情報</text><text fill="#FFFFFF" font-family="Calibri,Calibri_MSFontService,sans-serif" font-weight="400" font-size="15" transform="translate(400.676 293)">)</text><text font-family="IBM Plex Sans,IBM Plex Sans_MSFontService,sans-serif" font-weight="400" font-size="14" transform="translate(440.275 261)">performer.</text><text font-family="IBM Plex Sans,IBM Plex Sans_MSFontService,sans-serif" font-weight="400" font-size="14" transform="translate(440.275 276)">actor</text><path d="M428.003 280 513.049 280.217 513.044 282.217 427.997 282ZM511.724 277.213 519.714 281.234 511.704 285.213Z"/><path d="M450.5 517.5 539.167 517.5 539.167 517.5 577.167 517.5 602.5 517.5 602.5 530.333 602.5 534.698 602.5 535.833 602.5 539.5 577.167 539.5 539.167 539.5 539.167 539.5 450.5 539.5 450.5 535.833 450.5 530.333 450.5 530.333Z" stroke="#437321" stroke-width="2.66667" stroke-linejoin="round" stroke-miterlimit="10" fill="#5E9E31" fill-rule="evenodd"/><text fill="#FFFFFF" font-family="Meiryo,Meiryo_MSFontService,sans-serif" font-weight="400" font-size="15" transform="translate(459.333 531)">冠危険因子</text><path d="M450.5 327.5 539.167 327.5 539.167 327.5 577.167 327.5 602.5 327.5 602.5 340.333 602.5 344.698 602.5 345.833 602.5 349.5 577.167 349.5 539.167 349.5 539.167 349.5 450.5 349.5 450.5 345.833 450.5 340.333 450.5 340.333Z" stroke="#437321" stroke-width="2.66667" stroke-linejoin="round" stroke-miterlimit="10" fill="#5E9E31" fill-rule="evenodd"/><text fill="#FFFFFF" font-family="Meiryo,Meiryo_MSFontService,sans-serif" font-weight="400" font-size="15" transform="translate(459.501 341)">過去の血行再建</text><path d="M618.5 327.5 707.167 327.5 707.167 327.5 745.167 327.5 770.5 327.5 770.5 340.333 770.5 344.698 770.5 345.833 770.5 349.5 745.167 349.5 707.167 349.5 707.167 349.5 618.5 349.5 618.5 345.833 618.5 340.333 618.5 340.333Z" stroke="#437321" stroke-width="2.66667" stroke-linejoin="round" stroke-miterlimit="10" fill="#5E9E31" fill-rule="evenodd"/><text fill="#FFFFFF" font-family="Meiryo,Meiryo_MSFontService,sans-serif" font-weight="400" font-size="15" transform="translate(627.875 341)">術前情報</text><path d="M286.5 355.5 375.167 355.5 375.167 355.5 413.167 355.5 438.5 355.5 438.5 368.917 438.5 373.479 438.5 374.667 438.5 378.5 413.167 378.5 375.167 378.5 375.167 378.5 286.5 378.5 286.5 374.667 286.5 368.917 286.5 368.917Z" stroke="#437321" stroke-width="2.66667" stroke-linejoin="round" stroke-miterlimit="10" fill="#5E9E31" fill-rule="evenodd"/><text fill="#FFFFFF" font-family="Meiryo,Meiryo_MSFontService,sans-serif" font-weight="400" font-size="15" transform="translate(295.343 369)">検査情報</text><path d="M450.5 355.5 539.167 355.5 539.167 355.5 577.167 355.5 602.5 355.5 602.5 368.917 602.5 373.479 602.5 374.667 602.5 378.5 577.167 378.5 539.167 378.5 539.167 378.5 450.5 378.5 450.5 374.667 450.5 368.917 450.5 368.917Z" stroke="#437321" stroke-width="2.66667" stroke-linejoin="round" stroke-miterlimit="10" fill="#5E9E31" fill-rule="evenodd"/><text fill="#FFFFFF" font-family="Meiryo,Meiryo_MSFontService,sans-serif" font-weight="400" font-size="15" transform="translate(459.501 369)">検査内容</text><path d="M618.5 355.5 707.167 355.5 707.167 355.5 745.167 355.5 770.5 355.5 770.5 368.917 770.5 373.479 770.5 374.667 770.5 378.5 745.167 378.5 707.167 378.5 707.167 378.5 618.5 378.5 618.5 374.667 618.5 368.917 618.5 368.917Z" stroke="#437321" stroke-width="2.66667" stroke-linejoin="round" stroke-miterlimit="10" fill="#5E9E31" fill-rule="evenodd"/><text fill="#FFFFFF" font-family="Meiryo,Meiryo_MSFontService,sans-serif" font-weight="400" font-size="15" transform="translate(627.875 369)">補助循環治療</text><path d="M618.5 418.5 707.167 418.5 707.167 418.5 745.167 418.5 770.5 418.5 770.5 431.333 770.5 435.698 770.5 436.833 770.5 440.5 745.167 440.5 707.167 440.5 707.167 440.5 618.5 440.5 618.5 436.833 618.5 431.333 618.5 431.333Z" stroke="#437321" stroke-width="2.66667" stroke-linejoin="round" stroke-miterlimit="10" fill="#5E9E31" fill-rule="evenodd"/><text fill="#FFFFFF" font-family="Meiryo,Meiryo_MSFontService,sans-serif" font-weight="400" font-size="15" transform="translate(627.875 432)">スパズム負荷試験</text><path d="M283.5 452.5 372.167 452.5 372.167 452.5 410.167 452.5 435.5 452.5 435.5 465.333 435.5 469.698 435.5 470.833 435.5 474.5 410.167 474.5 372.167 474.5 372.167 474.5 283.5 474.5 283.5 470.833 283.5 465.333 283.5 465.333Z" stroke="#437321" stroke-width="2.66667" stroke-linejoin="round" stroke-miterlimit="10" fill="#5E9E31" fill-rule="evenodd"/><text fill="#FFFFFF" font-family="Calibri,Calibri_MSFontService,sans-serif" font-weight="400" font-size="15" transform="translate(292.136 466)">PCI</text><text fill="#FFFFFF" font-family="Meiryo,Meiryo_MSFontService,sans-serif" font-weight="400" font-size="15" transform="translate(311.136 466)">処置［拡張項目］</text><path d="M847.5 527.5 932.083 527.5 932.083 527.5 968.333 527.5 992.5 527.5 992.5 546.75 992.5 553.297 992.5 555 992.5 560.5 968.333 560.5 932.083 560.5 932.083 560.5 847.5 560.5 847.5 555 847.5 546.75 847.5 546.75Z" stroke="#A2520C" stroke-width="2.66667" stroke-linejoin="round" stroke-miterlimit="10" fill="#DD7215" fill-rule="evenodd"/><text fill="#FFFFFF" font-family="Calibri,Calibri_MSFontService,sans-serif" font-weight="400" font-size="15" transform="translate(890.486 539)">Condition</text><text fill="#FFFFFF" font-family="Calibri,Calibri_MSFontService,sans-serif" font-weight="400" font-size="15" transform="translate(863.486 554)">(</text><text fill="#FFFFFF" font-family="Meiryo,Meiryo_MSFontService,sans-serif" font-weight="400" font-size="15" transform="translate(867.986 554)">心</text><text fill="#FFFFFF" font-family="Meiryo,Meiryo_MSFontService,sans-serif" font-weight="400" font-size="15" transform="translate(882.653 554)">カテ</text><text fill="#FFFFFF" font-family="Meiryo,Meiryo_MSFontService,sans-serif" font-weight="400" font-size="15" transform="translate(911.986 554)">疾患</text><text fill="#FFFFFF" font-family="Meiryo,Meiryo_MSFontService,sans-serif" font-weight="400" font-size="15" transform="translate(941.319 554)">情報</text><text fill="#FFFFFF" font-family="Calibri,Calibri_MSFontService,sans-serif" font-weight="400" font-size="15" transform="translate(970.653 554)">)</text><text font-family="IBM Plex Sans,IBM Plex Sans_MSFontService,sans-serif" font-weight="400" font-size="14" transform="translate(803.445 534)">entry</text><path d="M783 542 815.715 542 815.715 543.119 814.715 542.119 839.764 542.119 839.764 544.119 813.715 544.119 813.715 543 814.715 544 783 544ZM838.43 539.119 846.43 543.119 838.43 547.119Z"/><path d="M1015.5 525.5 1048 525.5 1048 525.5 1096.75 525.5 1210.5 525.5 1210.5 534.167 1210.5 534.167 1210.5 547.167 1210.5 577.5 1096.75 577.5 1048 577.5 1048 577.5 1015.5 577.5 1015.5 547.167 994.945 541.26 1015.5 534.167Z" stroke="#172C51" stroke-width="1.33333" stroke-miterlimit="8" fill="#4472C4" fill-rule="evenodd"/><text fill="#FFFFFF" font-family="Yu Gothic,Yu Gothic_MSFontService,sans-serif" font-weight="400" font-size="13" transform="translate(1024.97 540)">component/</text><text fill="#FFFFFF" font-family="Yu Gothic,Yu Gothic_MSFontService,sans-serif" font-weight="400" font-size="13" transform="translate(1098.13 540)">structuredBody</text><text fill="#FFFFFF" font-family="Yu Gothic,Yu Gothic_MSFontService,sans-serif" font-weight="400" font-size="13" transform="translate(1189.63 540)">/</text><text fill="#FFFFFF" font-family="Yu Gothic,Yu Gothic_MSFontService,sans-serif" font-weight="400" font-size="13" transform="translate(1024.97 556)">component/section/entry/ob</text><text fill="#FFFFFF" font-family="Yu Gothic,Yu Gothic_MSFontService,sans-serif" font-weight="400" font-size="13" transform="translate(1024.97 571)">servation</text><path d="M492.5 635.5 577.667 635.5 577.667 635.5 614.167 635.5 638.5 635.5 638.5 654.75 638.5 661.297 638.5 663 638.5 668.5 614.167 668.5 577.667 668.5 577.667 668.5 492.5 668.5 492.5 663 492.5 654.75 492.5 654.75Z" stroke="#A2520C" stroke-width="2.66667" stroke-linejoin="round" stroke-miterlimit="10" fill="#DD7215" fill-rule="evenodd"/><text fill="#FFFFFF" font-family="Calibri,Calibri_MSFontService,sans-serif" font-weight="400" font-size="15" transform="translate(534.248 648)">Procedure</text><text fill="#FFFFFF" font-family="Calibri,Calibri_MSFontService,sans-serif" font-weight="400" font-size="15" transform="translate(536.414 663)">(</text><text fill="#FFFFFF" font-family="Calibri,Calibri_MSFontService,sans-serif" font-weight="400" font-size="15" transform="translate(540.914 663)">PCI</text><text fill="#FFFFFF" font-family="Meiryo,Meiryo_MSFontService,sans-serif" font-weight="400" font-size="15" transform="translate(559.914 663)">処置</text><text fill="#FFFFFF" font-family="Calibri,Calibri_MSFontService,sans-serif" font-weight="400" font-size="15" transform="translate(589.248 663)">)</text><text font-family="IBM Plex Sans,IBM Plex Sans_MSFontService,sans-serif" font-weight="400" font-size="14" transform="translate(445.714 643)">entry</text><path d="M432 650 463.332 650 463.332 651.132 462.332 650.132 485.997 650.132 485.997 652.132 461.332 652.132 461.332 651 462.332 652 432 652ZM484.663 647.132 492.663 651.132 484.663 655.132Z"/><path d="M694.5 671.5 779.667 671.5 779.667 671.5 816.167 671.5 840.5 671.5 840.5 689 840.5 694.951 840.5 696.5 840.5 701.5 816.167 701.5 779.667 701.5 779.667 701.5 694.5 701.5 694.5 696.5 694.5 689 694.5 689Z" stroke="#A2520C" stroke-width="2.66667" stroke-linejoin="round" stroke-miterlimit="10" fill="#DD7215" fill-rule="evenodd"/><text fill="#FFFFFF" font-family="Calibri,Calibri_MSFontService,sans-serif" font-weight="400" font-size="15" transform="translate(747.042 682)">Device</text><text fill="#FFFFFF" font-family="Calibri,Calibri_MSFontService,sans-serif" font-weight="400" font-size="15" transform="translate(723.622 697)">(</text><text fill="#FFFFFF" font-family="Calibri,Calibri_MSFontService,sans-serif" font-weight="400" font-size="15" transform="translate(728.122 697)">PCI</text><text fill="#FFFFFF" font-family="Meiryo,Meiryo_MSFontService,sans-serif" font-weight="400" font-size="15" transform="translate(747.122 697)">使用機器</text><text fill="#FFFFFF" font-family="Calibri,Calibri_MSFontService,sans-serif" font-weight="400" font-size="15" transform="translate(805.789 697)">)</text><path d="M638 651 667.345 651 667.345 686.62 666.345 685.62 688.023 685.62 688.023 687.62 665.345 687.62 665.345 652 666.345 653 638 653ZM686.69 682.62 694.69 686.62 686.69 690.62Z"/><text font-family="IBM Plex Sans,IBM Plex Sans_MSFontService,sans-serif" font-weight="400" font-size="12" transform="translate(606.107 692)">focalDevice</text><text font-family="IBM Plex Sans,IBM Plex Sans_MSFontService,sans-serif" font-weight="400" font-size="12" transform="translate(668.44 692)">.</text><text font-family="IBM Plex Sans,IBM Plex Sans_MSFontService,sans-serif" font-weight="400" font-size="12" transform="translate(606.107 707)">manupilated</text><path d="M875.5 637.5 960.083 637.5 960.083 637.5 996.333 637.5 1020.5 637.5 1020.5 654.417 1020.5 660.17 1020.5 661.667 1020.5 666.5 996.333 666.5 960.083 666.5 960.083 666.5 875.5 666.5 875.5 661.667 875.5 654.417 875.5 654.417Z" stroke="#A2520C" stroke-width="2.66667" stroke-linejoin="round" stroke-miterlimit="10" fill="#DD7215" fill-rule="evenodd"/><text fill="#FFFFFF" font-family="Calibri,Calibri_MSFontService,sans-serif" font-weight="400" font-size="16" transform="translate(907.71 648)">Observation</text><text fill="#FFFFFF" font-family="Calibri,Calibri_MSFontService,sans-serif" font-weight="400" font-size="15" transform="translate(904.123 664)">(PCI</text><text fill="#FFFFFF" font-family="Meiryo,Meiryo_MSFontService,sans-serif" font-weight="400" font-size="15" transform="translate(927.623 664)">後の状態</text><text fill="#FFFFFF" font-family="Calibri,Calibri_MSFontService,sans-serif" font-weight="400" font-size="15" transform="translate(986.29 664)">)</text><path d="M695.5 601.5 780.083 601.5 780.083 601.5 816.333 601.5 840.5 601.5 840.5 619 840.5 624.951 840.5 626.5 840.5 631.5 816.333 631.5 780.083 631.5 780.083 631.5 695.5 631.5 695.5 626.5 695.5 619 695.5 619Z" stroke="#A2520C" stroke-width="2.66667" stroke-linejoin="round" stroke-miterlimit="10" fill="#DD7215" fill-rule="evenodd"/><text fill="#FFFFFF" font-family="Calibri,Calibri_MSFontService,sans-serif" font-weight="400" font-size="16" transform="translate(727.81 612)">Observation</text><text fill="#FFFFFF" font-family="Calibri,Calibri_MSFontService,sans-serif" font-weight="400" font-size="15" transform="translate(724.223 628)">(PCI</text><text fill="#FFFFFF" font-family="Meiryo,Meiryo_MSFontService,sans-serif" font-weight="400" font-size="15" transform="translate(747.723 628)">前の状態</text><text fill="#FFFFFF" font-family="Calibri,Calibri_MSFontService,sans-serif" font-weight="400" font-size="15" transform="translate(806.39 628)">)</text><path d="M0-1 29.6454-1 29.6454 35.3775 28.6454 34.3775 50.6241 34.3775 50.6241 36.3775 27.6454 36.3775 27.6454 0 28.6454 1 0 1ZM49.2908 31.3775 57.2908 35.3775 49.2908 39.3775Z" transform="matrix(1 0 0 -1 638 651.378)"/><path d="M0-1 119.595-1 119.595 0.131968 118.595-0.868031 230.524-0.868031 230.524 1.13197 117.595 1.13197 117.595 0 118.595 1 0 1ZM229.191-3.86803 237.191 0.131968 229.191 4.13197Z" transform="matrix(1 0 0 -1 638 651.132)"/><text font-family="IBM Plex Sans,IBM Plex Sans_MSFontService,sans-serif" font-weight="400" font-size="12" transform="translate(595.273 604)">reasonReference</text><text font-family="IBM Plex Sans,IBM Plex Sans_MSFontService,sans-serif" font-weight="400" font-size="12" transform="translate(729.515 647)">outcome.extension.</text><text font-family="IBM Plex Sans,IBM Plex Sans_MSFontService,sans-serif" font-weight="400" font-size="12" transform="translate(729.515 662)">valueReference</text><path d="M1053.5 644.5 1085.83 644.5 1085.83 644.5 1134.33 644.5 1247.5 644.5 1247.5 653 1247.5 653 1247.5 665.75 1247.5 695.5 1134.33 695.5 1085.83 695.5 1085.83 695.5 1053.5 695.5 1053.5 665.75 1036.36 654.298 1053.5 653Z" stroke="#172C51" stroke-width="1.33333" stroke-miterlimit="8" fill="#4472C4" fill-rule="evenodd"/><text fill="#FFFFFF" font-family="Yu Gothic,Yu Gothic_MSFontService,sans-serif" font-weight="400" font-size="13" transform="translate(1062.15 658)">component/</text><text fill="#FFFFFF" font-family="Yu Gothic,Yu Gothic_MSFontService,sans-serif" font-weight="400" font-size="13" transform="translate(1135.32 658)">structuredBody</text><text fill="#FFFFFF" font-family="Yu Gothic,Yu Gothic_MSFontService,sans-serif" font-weight="400" font-size="13" transform="translate(1226.82 658)">/</text><text fill="#FFFFFF" font-family="Yu Gothic,Yu Gothic_MSFontService,sans-serif" font-weight="400" font-size="13" transform="translate(1062.15 674)">component/section/entry/ob</text><text fill="#FFFFFF" font-family="Yu Gothic,Yu Gothic_MSFontService,sans-serif" font-weight="400" font-size="13" transform="translate(1062.15 689)">servation</text><path d="M1053.5 644.5 1085.83 644.5 1085.83 644.5 1134.33 644.5 1247.5 644.5 1247.5 674.833 1247.5 674.833 1247.5 687.833 1247.5 696.5 1134.33 696.5 1085.83 696.5 1085.83 696.5 1053.5 696.5 1053.5 687.833 856.479 686.592 1053.5 674.833Z" stroke="#172C51" stroke-width="1.33333" stroke-miterlimit="8" fill="#4472C4" fill-rule="evenodd"/><text fill="#FFFFFF" font-family="Yu Gothic,Yu Gothic_MSFontService,sans-serif" font-weight="400" font-size="13" transform="translate(1062.15 658)">component/</text><text fill="#FFFFFF" font-family="Yu Gothic,Yu Gothic_MSFontService,sans-serif" font-weight="400" font-size="13" transform="translate(1135.32 658)">structuredBody</text><text fill="#FFFFFF" font-family="Yu Gothic,Yu Gothic_MSFontService,sans-serif" font-weight="400" font-size="13" transform="translate(1226.82 658)">/</text><text fill="#FFFFFF" font-family="Yu Gothic,Yu Gothic_MSFontService,sans-serif" font-weight="400" font-size="13" transform="translate(1062.15 674)">component/section/entry/ob</text><text fill="#FFFFFF" font-family="Yu Gothic,Yu Gothic_MSFontService,sans-serif" font-weight="400" font-size="13" transform="translate(1062.15 689)">servation</text></g></svg>