<svg width="1280" height="720" xmlns="http://www.w3.org/2000/svg" xmlns:xlink="http://www.w3.org/1999/xlink" overflow="hidden"><g><rect x="0" y="0" width="1280" height="720" fill="#FFFFFF"/><path d="M33.5001 23.5001 120.417 23.5001 120.417 23.5001 157.667 23.5001 182.5 23.5001 182.5 347.25 182.5 457.349 182.5 486 182.5 578.5 157.667 578.5 120.417 578.5 120.417 578.5 33.5001 578.5 33.5001 486 33.5001 347.25 33.5001 347.25Z" stroke="#A2520C" stroke-width="2.66667" stroke-linejoin="round" stroke-miterlimit="10" fill="#DD7215" fill-rule="evenodd"/><text fill="#FFFFFF" font-family="Calibri,Calibri_MSFontService,sans-serif" font-weight="400" font-size="21" transform="translate(77.028 298)">Bundle</text><text fill="#FFFFFF" font-family="Calibri,Calibri_MSFontService,sans-serif" font-weight="400" font-size="16" transform="translate(44.528 317)">(type="document")</text><path d="M199.5 22.5001 333.083 22.5001 333.083 22.5001 390.333 22.5001 428.5 22.5001 428.5 41.75 428.5 48.2964 428.5 50.0002 428.5 55.5001 390.333 55.5001 333.083 55.5001 333.083 55.5001 199.5 55.5001 199.5 50.0002 199.5 41.75 199.5 41.75Z" stroke="#A2520C" stroke-width="2.66667" stroke-linejoin="round" stroke-miterlimit="10" fill="#DD7215" fill-rule="evenodd"/><text fill="#FFFFFF" font-family="Calibri,Calibri_MSFontService,sans-serif" font-weight="400" font-size="16" transform="translate(272.498 34)">Composition</text><text fill="#FFFFFF" font-family="Calibri,Calibri_MSFontService,sans-serif" font-weight="400" font-size="15" transform="translate(279.918 50)">(</text><text fill="#FFFFFF" font-family="Meiryo,Meiryo_MSFontService,sans-serif" font-weight="400" font-size="15" transform="translate(284.418 50)">文書構造</text><text fill="#FFFFFF" font-family="Calibri,Calibri_MSFontService,sans-serif" font-weight="400" font-size="15" transform="translate(343.084 50)">)</text><path d="M283.5 464.5 372.167 464.5 372.167 464.5 410.167 464.5 435.5 464.5 435.5 478.5 435.5 483.261 435.5 484.5 435.5 488.5 410.167 488.5 372.167 488.5 372.167 488.5 283.5 488.5 283.5 484.5 283.5 478.5 283.5 478.5Z" stroke="#437321" stroke-width="2.66667" stroke-linejoin="round" stroke-miterlimit="10" fill="#5E9E31" fill-rule="evenodd"/><text fill="#FFFFFF" font-family="Meiryo,Meiryo_MSFontService,sans-serif" font-weight="400" font-size="15" transform="translate(292.609 479)">自覚症状</text><path d="M283.5 501.5 372.167 501.5 372.167 501.5 410.167 501.5 435.5 501.5 435.5 516.083 435.5 521.043 435.5 522.333 435.5 526.5 410.167 526.5 372.167 526.5 372.167 526.5 283.5 526.5 283.5 522.333 283.5 516.083 283.5 516.083Z" stroke="#437321" stroke-width="2.66667" stroke-linejoin="round" stroke-miterlimit="10" fill="#5E9E31" fill-rule="evenodd"/><text fill="#FFFFFF" font-family="Meiryo,Meiryo_MSFontService,sans-serif" font-weight="400" font-size="15" transform="translate(292.609 517)">検査時使用薬</text><path d="M450.5 388.5 539.167 388.5 539.167 388.5 577.167 388.5 602.5 388.5 602.5 403.083 602.5 408.043 602.5 409.333 602.5 413.5 577.167 413.5 539.167 413.5 539.167 413.5 450.5 413.5 450.5 409.333 450.5 403.083 450.5 403.083Z" stroke="#437321" stroke-width="2.66667" stroke-linejoin="round" stroke-miterlimit="10" fill="#5E9E31" fill-rule="evenodd"/><text fill="#FFFFFF" font-family="Meiryo,Meiryo_MSFontService,sans-serif" font-weight="400" font-size="15" transform="translate(459.501 403)">検査記述</text><path d="M450.5 426.5 539.167 426.5 539.167 426.5 577.167 426.5 602.5 426.5 602.5 441.083 602.5 446.043 602.5 447.333 602.5 451.5 577.167 451.5 539.167 451.5 539.167 451.5 450.5 451.5 450.5 447.333 450.5 441.083 450.5 441.083Z" stroke="#437321" stroke-width="2.66667" stroke-linejoin="round" stroke-miterlimit="10" fill="#5E9E31" fill-rule="evenodd"/><text fill="#FFFFFF" font-family="Meiryo,Meiryo_MSFontService,sans-serif" font-weight="400" font-size="15" transform="translate(459.501 441)">心電図コメント</text><path d="M450.5 326.5 539.167 326.5 539.167 326.5 577.167 326.5 602.5 326.5 602.5 341.083 602.5 346.043 602.5 347.333 602.5 351.5 577.167 351.5 539.167 351.5 539.167 351.5 450.5 351.5 450.5 347.333 450.5 341.083 450.5 341.083Z" stroke="#437321" stroke-width="2.66667" stroke-linejoin="round" stroke-miterlimit="10" fill="#5E9E31" fill-rule="evenodd"/><text fill="#FFFFFF" font-family="Meiryo,Meiryo_MSFontService,sans-serif" font-weight="400" font-size="15" transform="translate(459.501 341)">計測値（生理検査）</text><path d="M614.5 326.5 703.167 326.5 703.167 326.5 741.167 326.5 766.5 326.5 766.5 341.083 766.5 346.043 766.5 347.333 766.5 351.5 741.167 351.5 703.167 351.5 703.167 351.5 614.5 351.5 614.5 347.333 614.5 341.083 614.5 341.083Z" stroke="#437321" stroke-width="2.66667" stroke-linejoin="round" stroke-miterlimit="10" fill="#5E9E31" fill-rule="evenodd"/><text fill="#FFFFFF" font-family="Meiryo,Meiryo_MSFontService,sans-serif" font-weight="400" font-size="15" transform="translate(623.778 341)">解析値（生理検査）</text><path d="M285.5 325.5 374.167 325.5 374.167 325.5 412.167 325.5 437.5 325.5 437.5 340.083 437.5 345.043 437.5 346.333 437.5 350.5 412.167 350.5 374.167 350.5 374.167 350.5 285.5 350.5 285.5 346.333 285.5 340.083 285.5 340.083Z" stroke="#437321" stroke-width="2.66667" stroke-linejoin="round" stroke-miterlimit="10" fill="#5E9E31" fill-rule="evenodd"/><text fill="#FFFFFF" font-family="Meiryo,Meiryo_MSFontService,sans-serif" font-weight="400" font-size="15" transform="translate(294.181 340)">患者付帯情報</text><path d="M284.5 388.5 373.167 388.5 373.167 388.5 411.167 388.5 436.5 388.5 436.5 403.083 436.5 408.043 436.5 409.333 436.5 413.5 411.167 413.5 373.167 413.5 373.167 413.5 284.5 413.5 284.5 409.333 284.5 403.083 284.5 403.083Z" stroke="#437321" stroke-width="2.66667" stroke-linejoin="round" stroke-miterlimit="10" fill="#5E9E31" fill-rule="evenodd"/><text fill="#FFFFFF" font-family="Meiryo,Meiryo_MSFontService,sans-serif" font-weight="400" font-size="15" transform="translate(293.683 403)">検査項目</text><path d="M283.5 426.5 372.167 426.5 372.167 426.5 410.167 426.5 435.5 426.5 435.5 441.083 435.5 446.043 435.5 447.333 435.5 451.5 410.167 451.5 372.167 451.5 372.167 451.5 283.5 451.5 283.5 447.333 283.5 441.083 283.5 441.083Z" stroke="#437321" stroke-width="2.66667" stroke-linejoin="round" stroke-miterlimit="10" fill="#5E9E31" fill-rule="evenodd"/><text fill="#FFFFFF" font-family="Meiryo,Meiryo_MSFontService,sans-serif" font-weight="400" font-size="15" transform="translate(292.609 441)">既往歴</text><path d="M450.5 464.5 539.167 464.5 539.167 464.5 577.167 464.5 602.5 464.5 602.5 478.5 602.5 483.261 602.5 484.5 602.5 488.5 577.167 488.5 539.167 488.5 539.167 488.5 450.5 488.5 450.5 484.5 450.5 478.5 450.5 478.5Z" stroke="#437321" stroke-width="2.66667" stroke-linejoin="round" stroke-miterlimit="10" fill="#5E9E31" fill-rule="evenodd"/><text fill="#FFFFFF" font-family="Meiryo,Meiryo_MSFontService,sans-serif" font-weight="400" font-size="15" transform="translate(459.693 479)">超音波所見</text><path d="M284.5 69.5001 369.083 69.5001 369.083 69.5001 405.333 69.5001 429.5 69.5001 429.5 89.3334 429.5 96.0782 429.5 97.8334 429.5 103.5 405.333 103.5 369.083 103.5 369.083 103.5 284.5 103.5 284.5 97.8334 284.5 89.3334 284.5 89.3334Z" stroke="#A2520C" stroke-width="2.66667" stroke-linejoin="round" stroke-miterlimit="10" fill="#DD7215" fill-rule="evenodd"/><text fill="#FFFFFF" font-family="Calibri,Calibri_MSFontService,sans-serif" font-weight="400" font-size="16" transform="translate(333.374 82)">Patient</text><text fill="#FFFFFF" font-family="Calibri,Calibri_MSFontService,sans-serif" font-weight="400" font-size="15" transform="translate(322.874 98)">(</text><text fill="#FFFFFF" font-family="Meiryo,Meiryo_MSFontService,sans-serif" font-weight="400" font-size="15" transform="translate(327.374 98)">患者情報</text><text fill="#FFFFFF" font-family="Calibri,Calibri_MSFontService,sans-serif" font-weight="400" font-size="15" transform="translate(386.04 98)">)</text><path d="M285.5 109.5 370.083 109.5 370.083 109.5 406.333 109.5 430.5 109.5 430.5 128.75 430.5 135.296 430.5 137 430.5 142.5 406.333 142.5 370.083 142.5 370.083 142.5 285.5 142.5 285.5 137 285.5 128.75 285.5 128.75Z" stroke="#A2520C" stroke-width="2.66667" stroke-linejoin="round" stroke-miterlimit="10" fill="#DD7215" fill-rule="evenodd"/><text fill="#FFFFFF" font-family="Calibri,Calibri_MSFontService,sans-serif" font-weight="400" font-size="16" transform="translate(318.84 122)">Practitioner</text><text fill="#FFFFFF" font-family="Calibri,Calibri_MSFontService,sans-serif" font-weight="400" font-size="15" transform="translate(316.007 138)">(</text><text fill="#FFFFFF" font-family="Meiryo,Meiryo_MSFontService,sans-serif" font-weight="400" font-size="15" transform="translate(320.507 138)">作成</text><text fill="#FFFFFF" font-family="Meiryo,Meiryo_MSFontService,sans-serif" font-weight="400" font-size="15" transform="translate(349.84 138)">責任</text><text fill="#FFFFFF" font-family="Meiryo,Meiryo_MSFontService,sans-serif" font-weight="400" font-size="15" transform="translate(379.173 138)">者</text><text fill="#FFFFFF" font-family="Calibri,Calibri_MSFontService,sans-serif" font-weight="400" font-size="15" transform="translate(393.84 138)">)</text><path d="M283.5 147.5 368.083 147.5 368.083 147.5 404.333 147.5 428.5 147.5 428.5 166.75 428.5 173.296 428.5 175 428.5 180.5 404.333 180.5 368.083 180.5 368.083 180.5 283.5 180.5 283.5 175 283.5 166.75 283.5 166.75Z" stroke="#A2520C" stroke-width="2.66667" stroke-linejoin="round" stroke-miterlimit="10" fill="#DD7215" fill-rule="evenodd"/><text fill="#FFFFFF" font-family="Calibri,Calibri_MSFontService,sans-serif" font-weight="400" font-size="16" transform="translate(314.021 160)">Organization</text><text fill="#FFFFFF" font-family="Calibri,Calibri_MSFontService,sans-serif" font-weight="400" font-size="15" transform="translate(307.101 176)">(</text><text fill="#FFFFFF" font-family="Meiryo,Meiryo_MSFontService,sans-serif" font-weight="400" font-size="15" transform="translate(311.601 176)">作成医療機関</text><text fill="#FFFFFF" font-family="Calibri,Calibri_MSFontService,sans-serif" font-weight="400" font-size="15" transform="translate(399.601 176)">)</text><path d="M462.5 109.5 547.083 109.5 547.083 109.5 583.333 109.5 607.5 109.5 607.5 128.75 607.5 135.296 607.5 137 607.5 142.5 583.333 142.5 547.083 142.5 547.083 142.5 462.5 142.5 462.5 137 462.5 128.75 462.5 128.75Z" stroke="#A2520C" stroke-width="2.66667" stroke-linejoin="round" stroke-miterlimit="10" fill="#DD7215" fill-rule="evenodd"/><text fill="#FFFFFF" font-family="Calibri,Calibri_MSFontService,sans-serif" font-weight="400" font-size="16" transform="translate(512.388 122)">Device</text><text fill="#FFFFFF" font-family="Calibri,Calibri_MSFontService,sans-serif" font-weight="400" font-size="15" transform="translate(485.634 138)">(</text><text fill="#FFFFFF" font-family="Meiryo,Meiryo_MSFontService,sans-serif" font-weight="400" font-size="15" transform="translate(490.134 138)">作成システム</text><text fill="#FFFFFF" font-family="Calibri,Calibri_MSFontService,sans-serif" font-weight="400" font-size="15" transform="translate(578.134 138)">)</text><path d="M284.5 186.5 369.083 186.5 369.083 186.5 405.333 186.5 429.5 186.5 429.5 205.75 429.5 212.296 429.5 214 429.5 219.5 405.333 219.5 369.083 219.5 369.083 219.5 284.5 219.5 284.5 214 284.5 205.75 284.5 205.75Z" stroke="#A2520C" stroke-width="2.66667" stroke-linejoin="round" stroke-miterlimit="10" fill="#DD7215" fill-rule="evenodd"/><text fill="#FFFFFF" font-family="Calibri,Calibri_MSFontService,sans-serif" font-weight="400" font-size="16" transform="translate(315.127 198)">Organization</text><text fill="#FFFFFF" font-family="Calibri,Calibri_MSFontService,sans-serif" font-weight="400" font-size="15" transform="translate(308.207 214)">(</text><text fill="#FFFFFF" font-family="Meiryo,Meiryo_MSFontService,sans-serif" font-weight="400" font-size="15" transform="translate(312.707 214)">管理医療機関</text><text fill="#FFFFFF" font-family="Calibri,Calibri_MSFontService,sans-serif" font-weight="400" font-size="15" transform="translate(400.707 214)">)</text><path d="M520.5 69.5001 605.083 69.5001 605.083 69.5001 641.333 69.5001 665.5 69.5001 665.5 88.7501 665.5 95.2965 665.5 97.0001 665.5 102.5 641.333 102.5 605.083 102.5 605.083 102.5 520.5 102.5 520.5 97.0001 520.5 88.7501 520.5 88.7501Z" stroke="#A2520C" stroke-width="2.66667" stroke-linejoin="round" stroke-miterlimit="10" fill="#DD7215" fill-rule="evenodd"/><text fill="#FFFFFF" font-family="Calibri,Calibri_MSFontService,sans-serif" font-weight="400" font-size="16" transform="translate(550.973 82)">Organization</text><text fill="#FFFFFF" font-family="Calibri,Calibri_MSFontService,sans-serif" font-weight="400" font-size="15" transform="translate(566.053 98)">(</text><text fill="#FFFFFF" font-family="Meiryo,Meiryo_MSFontService,sans-serif" font-weight="400" font-size="15" transform="translate(570.553 98)">所属科</text><text fill="#FFFFFF" font-family="Calibri,Calibri_MSFontService,sans-serif" font-weight="400" font-size="15" transform="translate(614.553 98)">)</text><path d="M284.5 225.5 369.083 225.5 369.083 225.5 405.333 225.5 429.5 225.5 429.5 244.75 429.5 251.296 429.5 253 429.5 258.5 405.333 258.5 369.083 258.5 369.083 258.5 284.5 258.5 284.5 253 284.5 244.75 284.5 244.75Z" stroke="#A2520C" stroke-width="2.66667" stroke-linejoin="round" stroke-miterlimit="10" fill="#DD7215" fill-rule="evenodd"/><text fill="#FFFFFF" font-family="Calibri,Calibri_MSFontService,sans-serif" font-weight="400" font-size="16" transform="translate(318.343 238)">Practitioner</text><text fill="#FFFFFF" font-family="Calibri,Calibri_MSFontService,sans-serif" font-weight="400" font-size="15" transform="translate(300.843 254)">(</text><text fill="#FFFFFF" font-family="Meiryo,Meiryo_MSFontService,sans-serif" font-weight="400" font-size="15" transform="translate(305.343 254)">文書内容責任者</text><text fill="#FFFFFF" font-family="Calibri,Calibri_MSFontService,sans-serif" font-weight="400" font-size="15" transform="translate(408.009 254)">)</text><path d="M520.5 264.5 605.083 264.5 605.083 264.5 641.333 264.5 665.5 264.5 665.5 283.75 665.5 290.297 665.5 292 665.5 297.5 641.333 297.5 605.083 297.5 605.083 297.5 520.5 297.5 520.5 292 520.5 283.75 520.5 283.75Z" stroke="#A2520C" stroke-width="2.66667" stroke-linejoin="round" stroke-miterlimit="10" fill="#DD7215" fill-rule="evenodd"/><text fill="#FFFFFF" font-family="Calibri,Calibri_MSFontService,sans-serif" font-weight="400" font-size="16" transform="translate(539.809 277)">PractitionerRole</text><text fill="#FFFFFF" font-family="Calibri,Calibri_MSFontService,sans-serif" font-weight="400" font-size="15" transform="translate(536.723 293)">(</text><text fill="#FFFFFF" font-family="Meiryo,Meiryo_MSFontService,sans-serif" font-weight="400" font-size="15" transform="translate(541.223 293)">検査実施者役割</text><text fill="#FFFFFF" font-family="Calibri,Calibri_MSFontService,sans-serif" font-weight="400" font-size="15" transform="translate(643.889 293)">)</text><path d="M757.5 265.5 842.083 265.5 842.083 265.5 878.333 265.5 902.5 265.5 902.5 284.167 902.5 290.515 902.5 292.167 902.5 297.5 878.333 297.5 842.083 297.5 842.083 297.5 757.5 297.5 757.5 292.167 757.5 284.167 757.5 284.167Z" stroke="#A2520C" stroke-width="2.66667" stroke-linejoin="round" stroke-miterlimit="10" fill="#DD7215" fill-rule="evenodd"/><text fill="#FFFFFF" font-family="Calibri,Calibri_MSFontService,sans-serif" font-weight="400" font-size="16" transform="translate(791.121 277)">Practitioner</text><text fill="#FFFFFF" font-family="Calibri,Calibri_MSFontService,sans-serif" font-weight="400" font-size="15" transform="translate(788.288 293)">(</text><text fill="#FFFFFF" font-family="Meiryo,Meiryo_MSFontService,sans-serif" font-weight="400" font-size="15" transform="translate(792.788 293)">検査実施者</text><text fill="#FFFFFF" font-family="Calibri,Calibri_MSFontService,sans-serif" font-weight="400" font-size="15" transform="translate(866.121 293)">)</text><path d="M884.5 323.5 969.083 323.5 969.083 323.5 1005.33 323.5 1029.5 323.5 1029.5 342.75 1029.5 349.297 1029.5 351 1029.5 356.5 1005.33 356.5 969.083 356.5 969.083 356.5 884.5 356.5 884.5 351 884.5 342.75 884.5 342.75Z" stroke="#A2520C" stroke-width="2.66667" stroke-linejoin="round" stroke-miterlimit="10" fill="#DD7215" fill-rule="evenodd"/><text fill="#FFFFFF" font-family="Calibri,Calibri_MSFontService,sans-serif" font-weight="400" font-size="16" transform="translate(918.176 336)">Practitioner</text><text fill="#FFFFFF" font-family="Calibri,Calibri_MSFontService,sans-serif" font-weight="400" font-size="15" transform="translate(930.009 352)">(</text><text fill="#FFFFFF" font-family="Meiryo,Meiryo_MSFontService,sans-serif" font-weight="400" font-size="15" transform="translate(934.509 352)">測定者</text><text fill="#FFFFFF" font-family="Calibri,Calibri_MSFontService,sans-serif" font-weight="400" font-size="15" transform="translate(978.509 352)">)</text><path d="M1063.5 323.5 1148.08 323.5 1148.08 323.5 1184.33 323.5 1208.5 323.5 1208.5 342.75 1208.5 349.297 1208.5 351 1208.5 356.5 1184.33 356.5 1148.08 356.5 1148.08 356.5 1063.5 356.5 1063.5 351 1063.5 342.75 1063.5 342.75Z" stroke="#A2520C" stroke-width="2.66667" stroke-linejoin="round" stroke-miterlimit="10" fill="#DD7215" fill-rule="evenodd"/><text fill="#FFFFFF" font-family="Calibri,Calibri_MSFontService,sans-serif" font-weight="400" font-size="16" transform="translate(1113.53 336)">Device</text><text fill="#FFFFFF" font-family="Calibri,Calibri_MSFontService,sans-serif" font-weight="400" font-size="15" transform="translate(1086.78 352)">(</text><text fill="#FFFFFF" font-family="Meiryo,Meiryo_MSFontService,sans-serif" font-weight="400" font-size="15" transform="translate(1091.28 352)">測定システム</text><text fill="#FFFFFF" font-family="Calibri,Calibri_MSFontService,sans-serif" font-weight="400" font-size="15" transform="translate(1179.28 352)">)</text><path d="M884.5 379.5 969.083 379.5 969.083 379.5 1005.33 379.5 1029.5 379.5 1029.5 398.75 1029.5 405.297 1029.5 407 1029.5 412.5 1005.33 412.5 969.083 412.5 969.083 412.5 884.5 412.5 884.5 407 884.5 398.75 884.5 398.75Z" stroke="#A2520C" stroke-width="2.66667" stroke-linejoin="round" stroke-miterlimit="10" fill="#DD7215" fill-rule="evenodd"/><text fill="#FFFFFF" font-family="Calibri,Calibri_MSFontService,sans-serif" font-weight="400" font-size="16" transform="translate(916.762 392)">Observation</text><text fill="#FFFFFF" font-family="Calibri,Calibri_MSFontService,sans-serif" font-weight="400" font-size="15" transform="translate(905.176 408)">(</text><text fill="#FFFFFF" font-family="Meiryo,Meiryo_MSFontService,sans-serif" font-weight="400" font-size="15" transform="translate(909.676 408)">測定値</text><text fill="#FFFFFF" font-family="Calibri,Calibri_MSFontService,sans-serif" font-weight="400" font-size="15" transform="translate(953.676 408)">/</text><text fill="#FFFFFF" font-family="Meiryo,Meiryo_MSFontService,sans-serif" font-weight="400" font-size="15" transform="translate(959.342 408)">解析値</text><text fill="#FFFFFF" font-family="Calibri,Calibri_MSFontService,sans-serif" font-weight="400" font-size="15" transform="translate(1003.34 408)">)</text><path d="M520.5 545.5 605.083 545.5 605.083 545.5 641.333 545.5 665.5 545.5 665.5 565.917 665.5 572.86 665.5 574.667 665.5 580.5 641.333 580.5 605.083 580.5 605.083 580.5 520.5 580.5 520.5 574.667 520.5 565.917 520.5 565.917Z" stroke="#A2520C" stroke-width="2.66667" stroke-linejoin="round" stroke-miterlimit="10" fill="#DD7215" fill-rule="evenodd"/><text fill="#FFFFFF" font-family="Calibri,Calibri_MSFontService,sans-serif" font-weight="400" font-size="16" transform="translate(532.889 558)">DocumentReferen</text><text fill="#FFFFFF" font-family="Calibri,Calibri_MSFontService,sans-serif" font-weight="400" font-size="16" transform="translate(551.309 575)">ce</text><text fill="#FFFFFF" font-family="Calibri,Calibri_MSFontService,sans-serif" font-weight="400" font-size="15" transform="translate(566.143 575)">(</text><text fill="#FFFFFF" font-family="Meiryo,Meiryo_MSFontService,sans-serif" font-weight="400" font-size="15" transform="translate(570.643 575)">外部参照</text><text fill="#FFFFFF" font-family="Calibri,Calibri_MSFontService,sans-serif" font-weight="400" font-size="15" transform="translate(629.309 575)">)</text><path d="M697.5 544.5 782.083 544.5 782.083 544.5 818.333 544.5 842.5 544.5 842.5 565.5 842.5 572.642 842.5 574.5 842.5 580.5 818.333 580.5 782.083 580.5 782.083 580.5 697.5 580.5 697.5 574.5 697.5 565.5 697.5 565.5Z" stroke="#A2520C" stroke-width="2.66667" stroke-linejoin="round" stroke-miterlimit="10" fill="#DD7215" fill-rule="evenodd"/><text fill="#FFFFFF" font-family="Calibri,Calibri_MSFontService,sans-serif" font-weight="400" font-size="16" transform="translate(749.128 558)">Binary</text><text fill="#FFFFFF" font-family="Calibri,Calibri_MSFontService,sans-serif" font-weight="400" font-size="15" transform="translate(735.795 574)">(</text><text fill="#FFFFFF" font-family="Meiryo,Meiryo_MSFontService,sans-serif" font-weight="400" font-size="15" transform="translate(740.295 574)">外部参照</text><text fill="#FFFFFF" font-family="Calibri,Calibri_MSFontService,sans-serif" font-weight="400" font-size="15" transform="translate(798.961 574)">)</text><path d="M450.5 501.5 539.167 501.5 539.167 501.5 577.167 501.5 602.5 501.5 602.5 516.083 602.5 521.043 602.5 522.333 602.5 526.5 577.167 526.5 539.167 526.5 539.167 526.5 450.5 526.5 450.5 522.333 450.5 516.083 450.5 516.083Z" stroke="#437321" stroke-width="2.66667" stroke-linejoin="round" stroke-miterlimit="10" fill="#5E9E31" fill-rule="evenodd"/><text fill="#FFFFFF" font-family="Meiryo,Meiryo_MSFontService,sans-serif" font-weight="400" font-size="15" transform="translate(459.693 517)">検査</text><text fill="#FFFFFF" font-family="Meiryo,Meiryo_MSFontService,sans-serif" font-weight="400" font-size="15" transform="translate(489.026 517)">所見</text><path d="M616.5 388.5 705.167 388.5 705.167 388.5 743.167 388.5 768.5 388.5 768.5 403.083 768.5 408.043 768.5 409.333 768.5 413.5 743.167 413.5 705.167 413.5 705.167 413.5 616.5 413.5 616.5 409.333 616.5 403.083 616.5 403.083Z" stroke="#437321" stroke-width="2.66667" stroke-linejoin="round" stroke-miterlimit="10" fill="#5E9E31" fill-rule="evenodd"/><text fill="#FFFFFF" font-family="Meiryo,Meiryo_MSFontService,sans-serif" font-weight="400" font-size="15" transform="translate(625.318 403)">医師所見</text><path d="M283.5 551.5 372.167 551.5 372.167 551.5 410.167 551.5 435.5 551.5 435.5 566.083 435.5 571.043 435.5 572.333 435.5 576.5 410.167 576.5 372.167 576.5 372.167 576.5 283.5 576.5 283.5 572.333 283.5 566.083 283.5 566.083Z" stroke="#437321" stroke-width="2.66667" stroke-linejoin="round" stroke-miterlimit="10" fill="#5E9E31" fill-rule="evenodd"/><text fill="#FFFFFF" font-family="Meiryo,Meiryo_MSFontService,sans-serif" font-weight="400" font-size="15" transform="translate(292.609 566)">外部参照</text><text font-family="IBM Plex Sans,IBM Plex Sans_MSFontService,sans-serif" font-weight="400" font-size="14" transform="translate(213.59 79)">subject</text><text font-family="IBM Plex Sans,IBM Plex Sans_MSFontService,sans-serif" font-weight="400" font-size="14" transform="translate(213.201 118)">author</text><path d="M0-1 35.0975-1 35.0975 69.8232 33.0975 69.8232 33.0975 0 34.0975 1 0 1ZM38.0975 68.4899 34.0975 76.4899 30.0975 68.4899Z" transform="matrix(1.83697e-16 1 1 -1.83697e-16 208 52.0001)"/><path d="M0-1 74.6774-1 74.6774 70.2897 72.6774 70.2897 72.6774 0 73.6774 1 0 1ZM77.6774 68.9563 73.6774 76.9563 69.6774 68.9563Z" transform="matrix(1.83697e-16 1 1 -1.83697e-16 208 52)"/><path d="M0-1 112.825-1 112.825 68.7175 110.825 68.7175 110.825 0 111.825 1 0 1ZM115.825 67.3841 111.825 75.3841 107.825 67.3841Z" transform="matrix(1.83697e-16 1 1 -1.83697e-16 208 52)"/><text font-family="IBM Plex Sans,IBM Plex Sans_MSFontService,sans-serif" font-weight="400" font-size="14" transform="translate(213.201 157)">author</text><text font-family="IBM Plex Sans,IBM Plex Sans_MSFontService,sans-serif" font-weight="400" font-size="14" transform="translate(213.201 195)">custodian</text><path d="M0-1 151.148-1 151.148 69.8232 149.148 69.8232 149.148 0 150.148 1 0 1ZM154.148 68.4898 150.148 76.4898 146.148 68.4898Z" transform="matrix(1.83697e-16 1 1 -1.83697e-16 208 51.9999)"/><text font-family="IBM Plex Sans,IBM Plex Sans_MSFontService,sans-serif" font-weight="400" font-size="14" transform="translate(213.201 223)">attester</text><text font-family="IBM Plex Sans,IBM Plex Sans_MSFontService,sans-serif" font-weight="400" font-size="14" transform="translate(262.534 223)">.</text><text font-family="IBM Plex Sans,IBM Plex Sans_MSFontService,sans-serif" font-weight="400" font-size="14" transform="translate(213.201 238)">party</text><path d="M0-1 190.624-1 190.624 69.7921 188.624 69.7921 188.624 0 189.624 1 0 1ZM193.624 68.4587 189.624 76.4587 185.624 68.4587Z" transform="matrix(1.83697e-16 1 1 -1.83697e-16 208 51.9999)"/><path d="M0-1 230.204-1 230.204 69.7921 228.204 69.7921 228.204 0 229.204 1 0 1ZM233.204 68.4587 229.204 76.4587 225.204 68.4587Z" transform="matrix(1.83697e-16 1 1 -1.83697e-16 208 51.9999)"/><text font-family="IBM Plex Sans,IBM Plex Sans_MSFontService,sans-serif" font-weight="400" font-size="14" transform="translate(215.143 261)">event.</text><text font-family="IBM Plex Sans,IBM Plex Sans_MSFontService,sans-serif" font-weight="400" font-size="14" transform="translate(215.143 276)">detail</text><text font-family="IBM Plex Sans,IBM Plex Sans_MSFontService,sans-serif" font-weight="400" font-size="14" transform="translate(675.916 272)">practitioner</text><text font-family="IBM Plex Sans,IBM Plex Sans_MSFontService,sans-serif" font-weight="400" font-size="14" transform="translate(435.187 63)">managing</text><text font-family="IBM Plex Sans,IBM Plex Sans_MSFontService,sans-serif" font-weight="400" font-size="14" transform="translate(435.187 80)">Organization</text><text font-family="IBM Plex Sans,IBM Plex Sans_MSFontService,sans-serif" font-weight="400" font-size="14" transform="translate(438.868 131)">or</text><text font-family="IBM Plex Sans,IBM Plex Sans_MSFontService,sans-serif" font-weight="400" font-size="14" transform="translate(212.565 449)">section</text><path d="M0-1 406.14-1 406.14 53.9964 404.14 53.9964 404.14 0 405.14 1 0 1ZM409.14 52.6631 405.14 60.6631 401.14 52.6631Z" transform="matrix(1.83697e-16 1 1 -1.83697e-16 208 52)"/><path d="M0-1 288.558-1 288.558 53.9964 286.558 53.9964 286.558 0 287.558 1 0 1ZM291.558 52.6631 287.558 60.6631 283.558 52.6631Z" transform="matrix(1.83697e-16 1 1 -1.83697e-16 208 51.9999)"/><text font-family="IBM Plex Sans,IBM Plex Sans_MSFontService,sans-serif" font-weight="400" font-size="14" transform="translate(213.59 332)">section</text><rect x="268.5" y="316.5" width="513" height="47" stroke="#000000" stroke-width="3" stroke-linecap="square" stroke-miterlimit="8" stroke-dasharray="9 3" fill="none"/><rect x="268.5" y="377.5" width="513" height="160" stroke="#000000" stroke-width="3" stroke-linecap="square" stroke-miterlimit="8" stroke-dasharray="9 3" fill="none"/><path d="M0-1 512.214-1 512.214 68.7175 510.214 68.7175 510.214 0 511.214 1 0 1ZM515.214 67.3841 511.214 75.3841 507.214 67.3841Z" transform="matrix(1.83697e-16 1 1 -1.83697e-16 208 51.9999)"/><text font-family="IBM Plex Sans,IBM Plex Sans_MSFontService,sans-serif" font-weight="400" font-size="14" transform="translate(215.277 557)">section</text><text font-family="IBM Plex Sans,IBM Plex Sans_MSFontService,sans-serif" font-weight="400" font-size="14" transform="translate(673.782 568)">or</text><text font-family="IBM Plex Sans,IBM Plex Sans_MSFontService,sans-serif" font-weight="400" font-size="14" transform="translate(839.079 388)">entry</text><text font-family="IBM Plex Sans,IBM Plex Sans_MSFontService,sans-serif" font-weight="400" font-size="14" transform="translate(457.369 555)">entry</text><text font-family="IBM Plex Sans,IBM Plex Sans_MSFontService,sans-serif" font-weight="400" font-size="14" transform="translate(1039.93 344)">or</text><text font-family="IBM Plex Sans,IBM Plex Sans_MSFontService,sans-serif" font-weight="400" font-size="14" transform="translate(834.575 333)">author</text><path d="M781.002 339 877.099 339.152 877.096 341.152 780.998 341ZM875.77 336.15 883.764 340.162 875.758 344.15Z"/><path d="M998.5 34.5001 1032.33 34.5001 1032.33 34.5001 1046.83 34.5001 1056.5 34.5001 1056.5 44.4167 1056.5 47.7891 1056.5 48.6667 1056.5 51.5001 1046.83 51.5001 1032.33 51.5001 1032.33 51.5001 998.5 51.5001 998.5 48.6667 998.5 44.4167 998.5 44.4167Z" stroke="#A2520C" stroke-width="2.66667" stroke-linejoin="round" stroke-miterlimit="10" fill="#DD7215" fill-rule="evenodd"/><path d="M998.5 61.5001 1032.33 61.5001 1032.33 61.5001 1046.83 61.5001 1056.5 61.5001 1056.5 71.4167 1056.5 74.7891 1056.5 75.6667 1056.5 78.5001 1046.83 78.5001 1032.33 78.5001 1032.33 78.5001 998.5 78.5001 998.5 75.6667 998.5 71.4167 998.5 71.4167Z" stroke="#437321" stroke-width="2.66667" stroke-linejoin="round" stroke-miterlimit="10" fill="#5E9E31" fill-rule="evenodd"/><text font-family="MS Gothic,MS Gothic_MSFontService,sans-serif" font-weight="400" font-size="14" transform="translate(1059.32 47)">：</text><text font-family="IBM Plex Sans,IBM Plex Sans_MSFontService,sans-serif" font-weight="400" font-size="14" transform="translate(1073.32 47)">FHIR</text><text font-family="MS Gothic,MS Gothic_MSFontService,sans-serif" font-weight="400" font-size="14" transform="translate(1105.65 47)">リソース</text><text font-family="MS Gothic,MS Gothic_MSFontService,sans-serif" font-weight="400" font-size="14" transform="translate(1059.32 73)">：</text><text font-family="IBM Plex Sans,IBM Plex Sans_MSFontService,sans-serif" font-weight="400" font-size="14" transform="translate(1073.32 73)">Composition</text><text font-family="MS Gothic,MS Gothic_MSFontService,sans-serif" font-weight="400" font-size="14" transform="translate(1152.48 73)">リソースの</text><text font-family="MS Gothic,MS Gothic_MSFontService,sans-serif" font-weight="400" font-size="14" transform="translate(1073.32 90)">セクション</text><path d="M0.0024329-0.999997 83.9999-0.795639 83.9951 1.20435-0.0024329 0.999997ZM82.674-3.79887 90.6642 0.220577 82.6545 4.2011Z" transform="matrix(1 0 0 -1 429 86.2206)"/><path d="M665.003 280 750.049 280.217 750.044 282.217 664.997 282ZM748.724 277.213 756.714 281.234 748.704 285.213Z"/><path d="M0.00902502-0.999959 78.1195-0.294982 78.1015 1.70494-0.00902502 0.999959ZM76.8133-3.30689 84.7769 0.765144 76.7411 4.69278Z" transform="matrix(1 0 0 -1 435 562.765)"/><path d="M781 339 833.382 339 833.382 396.104 832.382 395.104 877.097 395.104 877.097 397.104 831.382 397.104 831.382 340 832.382 341 781 341ZM875.764 392.104 883.764 396.104 875.764 400.104Z"/><path d="M884.5 440.5 969.083 440.5 969.083 440.5 1005.33 440.5 1029.5 440.5 1029.5 459.75 1029.5 466.297 1029.5 468 1029.5 473.5 1005.33 473.5 969.083 473.5 969.083 473.5 884.5 473.5 884.5 468 884.5 459.75 884.5 459.75Z" stroke="#A2520C" stroke-width="2.66667" stroke-linejoin="round" stroke-miterlimit="10" fill="#DD7215" fill-rule="evenodd"/><text fill="#FFFFFF" font-family="Calibri,Calibri_MSFontService,sans-serif" font-weight="400" font-size="16" transform="translate(918.176 453)">Practitioner</text><text fill="#FFFFFF" font-family="Calibri,Calibri_MSFontService,sans-serif" font-weight="400" font-size="15" transform="translate(930.009 469)">(</text><text fill="#FFFFFF" font-family="Meiryo,Meiryo_MSFontService,sans-serif" font-weight="400" font-size="15" transform="translate(934.509 469)">測定者</text><text fill="#FFFFFF" font-family="Calibri,Calibri_MSFontService,sans-serif" font-weight="400" font-size="15" transform="translate(978.509 469)">)</text><path d="M1063.5 440.5 1148.08 440.5 1148.08 440.5 1184.33 440.5 1208.5 440.5 1208.5 459.75 1208.5 466.297 1208.5 468 1208.5 473.5 1184.33 473.5 1148.08 473.5 1148.08 473.5 1063.5 473.5 1063.5 468 1063.5 459.75 1063.5 459.75Z" stroke="#A2520C" stroke-width="2.66667" stroke-linejoin="round" stroke-miterlimit="10" fill="#DD7215" fill-rule="evenodd"/><text fill="#FFFFFF" font-family="Calibri,Calibri_MSFontService,sans-serif" font-weight="400" font-size="16" transform="translate(1113.53 453)">Device</text><text fill="#FFFFFF" font-family="Calibri,Calibri_MSFontService,sans-serif" font-weight="400" font-size="15" transform="translate(1086.78 469)">(</text><text fill="#FFFFFF" font-family="Meiryo,Meiryo_MSFontService,sans-serif" font-weight="400" font-size="15" transform="translate(1091.28 469)">測定システム</text><text fill="#FFFFFF" font-family="Calibri,Calibri_MSFontService,sans-serif" font-weight="400" font-size="15" transform="translate(1179.28 469)">)</text><text font-family="IBM Plex Sans,IBM Plex Sans_MSFontService,sans-serif" font-weight="400" font-size="14" transform="translate(1039.93 461)">or</text><text font-family="IBM Plex Sans,IBM Plex Sans_MSFontService,sans-serif" font-weight="400" font-size="14" transform="translate(834.575 450)">author</text><path d="M0.00465553-0.999989 96.1019-0.552601 96.0926 1.44738-0.00465553 0.999989ZM94.7825-3.55878 102.764 0.478425 94.7452 4.44114Z" transform="matrix(1 0 0 -1 781 457.478)"/><path d="M628.5 477.5 660.833 477.5 660.833 477.5 709.333 477.5 822.5 477.5 822.5 484.5 822.5 484.5 822.5 495 822.5 519.5 709.333 519.5 660.833 519.5 660.833 519.5 628.5 519.5 628.5 495 606.98 479.933 628.5 484.5Z" stroke="#172C51" stroke-width="1.33333" stroke-miterlimit="8" fill="#4472C4" fill-rule="evenodd"/><text fill="#FFFFFF" font-family="Yu Gothic,Yu Gothic_MSFontService,sans-serif" font-weight="400" font-size="13" transform="translate(637.662 494)">component/</text><text fill="#FFFFFF" font-family="Yu Gothic,Yu Gothic_MSFontService,sans-serif" font-weight="400" font-size="13" transform="translate(710.829 494)">structuredBody</text><text fill="#FFFFFF" font-family="Yu Gothic,Yu Gothic_MSFontService,sans-serif" font-weight="400" font-size="13" transform="translate(802.329 494)">/</text><text fill="#FFFFFF" font-family="Yu Gothic,Yu Gothic_MSFontService,sans-serif" font-weight="400" font-size="13" transform="translate(637.662 510)">component/section</text><path d="M692.5 75.5001 708.833 75.5001 708.833 75.5001 733.333 75.5001 790.5 75.5001 790.5 88.9168 790.5 88.9168 790.5 94.6668 790.5 98.5001 733.333 98.5001 708.833 98.5001 708.833 98.5001 692.5 98.5001 692.5 94.6668 671.683 88.7209 692.5 88.9168Z" stroke="#172C51" stroke-width="1.33333" stroke-miterlimit="8" fill="#4472C4" fill-rule="evenodd"/><text fill="#FFFFFF" font-family="Yu Gothic,Yu Gothic_MSFontService,sans-serif" font-weight="400" font-size="13" transform="translate(701.696 91)">recordTarget</text><path d="M633.5 112.5 644.667 112.5 644.667 112.5 661.417 112.5 700.5 112.5 700.5 125.917 700.5 125.917 700.5 131.667 700.5 135.5 661.417 135.5 644.667 135.5 644.667 135.5 633.5 135.5 633.5 131.667 610.67 124.857 633.5 125.917Z" stroke="#172C51" stroke-width="1.33333" stroke-miterlimit="8" fill="#4472C4" fill-rule="evenodd"/><text fill="#FFFFFF" font-family="Yu Gothic,Yu Gothic_MSFontService,sans-serif" font-weight="400" font-size="13" transform="translate(642.695 128)">author</text><path d="M451.5 154.5 463 154.5 463 154.5 480.25 154.5 520.5 154.5 520.5 167.917 520.5 167.917 520.5 173.667 520.5 177.5 480.25 177.5 463 177.5 463 177.5 451.5 177.5 451.5 173.667 428.173 170.311 451.5 167.917Z" stroke="#172C51" stroke-width="1.33333" stroke-miterlimit="8" fill="#4472C4" fill-rule="evenodd"/><text fill="#FFFFFF" font-family="Yu Gothic,Yu Gothic_MSFontService,sans-serif" font-weight="400" font-size="13" transform="translate(460.737 169)">author</text><path d="M451.5 188.5 465.5 188.5 465.5 188.5 486.5 188.5 535.5 188.5 535.5 201.917 535.5 201.917 535.5 207.667 535.5 211.5 486.5 211.5 465.5 211.5 465.5 211.5 451.5 211.5 451.5 207.667 430.211 202.584 451.5 201.917Z" stroke="#172C51" stroke-width="1.33333" stroke-miterlimit="8" fill="#4472C4" fill-rule="evenodd"/><text fill="#FFFFFF" font-family="Yu Gothic,Yu Gothic_MSFontService,sans-serif" font-weight="400" font-size="13" transform="translate(460.737 203)">custodian</text><path d="M451.5 222.5 469.833 222.5 469.833 222.5 497.333 222.5 561.5 222.5 561.5 235.917 561.5 235.917 561.5 241.667 561.5 245.5 497.333 245.5 469.833 245.5 469.833 245.5 451.5 245.5 451.5 241.667 431.603 235.721 451.5 235.917Z" stroke="#172C51" stroke-width="1.33333" stroke-miterlimit="8" fill="#4472C4" fill-rule="evenodd"/><text fill="#FFFFFF" font-family="Yu Gothic,Yu Gothic_MSFontService,sans-serif" font-weight="400" font-size="13" transform="translate(460.737 238)">authenticator</text><path d="M840.5 214.5 861.833 214.5 861.833 214.5 893.833 214.5 968.5 214.5 968.5 230.25 968.5 230.25 968.5 237 968.5 241.5 893.833 241.5 858.848 262.502 861.833 241.5 840.5 241.5 840.5 237 840.5 230.25 840.5 230.25Z" stroke="#172C51" stroke-width="1.33333" stroke-miterlimit="8" fill="#4472C4" fill-rule="evenodd"/><text fill="#FFFFFF" font-family="Yu Gothic,Yu Gothic_MSFontService,sans-serif" font-weight="400" font-size="13" transform="translate(849.749 232)">documentationOf</text><path d="M1020.5 257.5 1053 257.5 1053 257.5 1101.75 257.5 1215.5 257.5 1215.5 282.583 1215.5 282.583 1215.5 293.333 1215.5 300.5 1101.75 300.5 1048.45 318.602 1053 300.5 1020.5 300.5 1020.5 293.333 1020.5 282.583 1020.5 282.583Z" stroke="#172C51" stroke-width="1.33333" stroke-miterlimit="8" fill="#4472C4" fill-rule="evenodd"/><text fill="#FFFFFF" font-family="Yu Gothic,Yu Gothic_MSFontService,sans-serif" font-weight="400" font-size="13" transform="translate(1029.65 275)">component/</text><text fill="#FFFFFF" font-family="Yu Gothic,Yu Gothic_MSFontService,sans-serif" font-weight="400" font-size="13" transform="translate(1102.82 275)">structuredBody</text><text fill="#FFFFFF" font-family="Yu Gothic,Yu Gothic_MSFontService,sans-serif" font-weight="400" font-size="13" transform="translate(1194.32 275)">/</text><text fill="#FFFFFF" font-family="Yu Gothic,Yu Gothic_MSFontService,sans-serif" font-weight="400" font-size="13" transform="translate(1029.65 291)">component/section/author</text><path d="M1053.5 370.5 1085.83 370.5 1085.83 370.5 1134.33 370.5 1247.5 370.5 1247.5 379.167 1247.5 379.167 1247.5 392.167 1247.5 422.5 1134.33 422.5 1085.83 422.5 1085.83 422.5 1053.5 422.5 1053.5 392.167 1034.77 394.936 1053.5 379.167Z" stroke="#172C51" stroke-width="1.33333" stroke-miterlimit="8" fill="#4472C4" fill-rule="evenodd"/><text fill="#FFFFFF" font-family="Yu Gothic,Yu Gothic_MSFontService,sans-serif" font-weight="400" font-size="13" transform="translate(1062.15 384)">component/</text><text fill="#FFFFFF" font-family="Yu Gothic,Yu Gothic_MSFontService,sans-serif" font-weight="400" font-size="13" transform="translate(1135.32 384)">structuredBody</text><text fill="#FFFFFF" font-family="Yu Gothic,Yu Gothic_MSFontService,sans-serif" font-weight="400" font-size="13" transform="translate(1226.82 384)">/</text><text fill="#FFFFFF" font-family="Yu Gothic,Yu Gothic_MSFontService,sans-serif" font-weight="400" font-size="13" transform="translate(1062.15 400)">component/section/entry/ob</text><text fill="#FFFFFF" font-family="Yu Gothic,Yu Gothic_MSFontService,sans-serif" font-weight="400" font-size="13" transform="translate(1062.15 415)">servation</text><path d="M633.5 601.5 672.167 601.5 677.724 591.247 730.167 601.5 865.5 601.5 865.5 610.167 865.5 610.167 865.5 623.167 865.5 653.5 730.167 653.5 672.167 653.5 672.167 653.5 633.5 653.5 633.5 623.167 633.5 610.167 633.5 610.167Z" stroke="#172C51" stroke-width="1.33333" stroke-miterlimit="8" fill="#4472C4" fill-rule="evenodd"/><text fill="#FFFFFF" font-family="Yu Gothic,Yu Gothic_MSFontService,sans-serif" font-weight="400" font-size="13" transform="translate(642.695 616)">component/</text><text fill="#FFFFFF" font-family="Yu Gothic,Yu Gothic_MSFontService,sans-serif" font-weight="400" font-size="13" transform="translate(715.862 616)">structuredBody</text><text fill="#FFFFFF" font-family="Yu Gothic,Yu Gothic_MSFontService,sans-serif" font-weight="400" font-size="13" transform="translate(807.362 616)">/</text><text fill="#FFFFFF" font-family="Yu Gothic,Yu Gothic_MSFontService,sans-serif" font-weight="400" font-size="13" transform="translate(642.695 632)">component/section/entry/observat</text><text fill="#FFFFFF" font-family="Yu Gothic,Yu Gothic_MSFontService,sans-serif" font-weight="400" font-size="13" transform="translate(642.695 647)">ion/reference/</text><text fill="#FFFFFF" font-family="Yu Gothic,Yu Gothic_MSFontService,sans-serif" font-weight="400" font-size="13" transform="translate(730.862 647)">externalDocument</text><text font-family="IBM Plex Sans,IBM Plex Sans_MSFontService,sans-serif" font-weight="400" font-size="14" transform="translate(207.122 42)">.</text><path d="M998.5 100.5 1008.17 100.5 1008.17 100.5 1022.67 100.5 1056.5 100.5 1056.5 111 1056.5 111 1056.5 115.5 1056.5 118.5 1022.67 118.5 1008.17 118.5 1008.17 118.5 998.5 118.5 998.5 115.5 986.18 110.847 998.5 111Z" stroke="#172C51" stroke-width="1.33333" stroke-miterlimit="8" fill="#4472C4" fill-rule="evenodd"/><text font-family="MS Gothic,MS Gothic_MSFontService,sans-serif" font-weight="400" font-size="14" transform="translate(1059.45 115)">：</text><text font-family="IBM Plex Sans,IBM Plex Sans_MSFontService,sans-serif" font-weight="400" font-size="14" transform="translate(1073.45 115)">CDA R2</text><text font-family="MS Gothic,MS Gothic_MSFontService,sans-serif" font-weight="400" font-size="14" transform="translate(1121.11 115)">の対応要素</text><text font-family="IBM Plex Sans,IBM Plex Sans_MSFontService,sans-serif" font-weight="400" font-size="14" transform="translate(1059.45 132)">(/</text><text font-family="IBM Plex Sans,IBM Plex Sans_MSFontService,sans-serif" font-weight="400" font-size="14" transform="translate(1069.45 132)">ClinicalDocument</text><text font-family="IBM Plex Sans,IBM Plex Sans_MSFontService,sans-serif" font-weight="400" font-size="14" transform="translate(1180.11 132)">/</text><text font-family="MS Gothic,MS Gothic_MSFontService,sans-serif" font-weight="400" font-size="14" transform="translate(1185.45 132)">は省略</text><text font-family="IBM Plex Sans,IBM Plex Sans_MSFontService,sans-serif" font-weight="400" font-size="14" transform="translate(1227.45 132)">)</text><path d="M284.5 265.5 369.083 265.5 369.083 265.5 405.333 265.5 429.5 265.5 429.5 284.75 429.5 291.297 429.5 293 429.5 298.5 405.333 298.5 369.083 298.5 369.083 298.5 284.5 298.5 284.5 293 284.5 284.75 284.5 284.75Z" stroke="#A2520C" stroke-width="2.66667" stroke-linejoin="round" stroke-miterlimit="10" fill="#DD7215" fill-rule="evenodd"/><text fill="#FFFFFF" font-family="Calibri,Calibri_MSFontService,sans-serif" font-weight="400" font-size="16" transform="translate(323.009 277)">Procedure</text><path d="M322.763 279.428 345.429 279.428 368.096 279.428 390.763 279.428 390.763 280.428 368.096 280.428 345.429 280.428 322.763 280.428Z" fill="#FFFFFF" fill-rule="evenodd"/><text fill="#FFFFFF" font-family="Calibri,Calibri_MSFontService,sans-serif" font-weight="400" font-size="15" transform="translate(308.176 293)">(</text><text fill="#FFFFFF" font-family="Meiryo,Meiryo_MSFontService,sans-serif" font-weight="400" font-size="15" transform="translate(312.676 293)">検査実施情報</text><text fill="#FFFFFF" font-family="Calibri,Calibri_MSFontService,sans-serif" font-weight="400" font-size="15" transform="translate(400.676 293)">)</text><path d="M307.763 295.428 332.013 295.428 356.263 295.428 380.513 295.428 404.763 295.428 404.763 296.428 380.513 296.428 356.263 296.428 332.013 296.428 307.763 296.428Z" fill="#FFFFFF" fill-rule="evenodd"/><text font-family="IBM Plex Sans,IBM Plex Sans_MSFontService,sans-serif" font-weight="400" font-size="14" transform="translate(440.275 263)">performer.</text><text font-family="IBM Plex Sans,IBM Plex Sans_MSFontService,sans-serif" font-weight="400" font-size="14" transform="translate(440.275 278)">actor</text><path d="M428.003 280 513.049 280.217 513.044 282.217 427.997 282ZM511.724 277.213 519.714 281.234 511.704 285.213Z"/></g></svg>