<svg width="1280" height="720" xmlns="http://www.w3.org/2000/svg" xmlns:xlink="http://www.w3.org/1999/xlink" overflow="hidden"><g><rect x="0" y="0" width="1280" height="720" fill="#FFFFFF"/><path d="M33.5001 22.5001 120.417 22.5001 120.417 22.5001 157.667 22.5001 182.5 22.5001 182.5 366.667 182.5 483.709 182.5 514.167 182.5 612.5 157.667 612.5 120.417 612.5 120.417 612.5 33.5001 612.5 33.5001 514.167 33.5001 366.667 33.5001 366.667Z" stroke="#A2520C" stroke-width="2.66667" stroke-linejoin="round" stroke-miterlimit="10" fill="#DD7215" fill-rule="evenodd"/><text fill="#FFFFFF" font-family="Calibri,Calibri_MSFontService,sans-serif" font-weight="400" font-size="21" transform="translate(77.028 314)">Bundle</text><text fill="#FFFFFF" font-family="Calibri,Calibri_MSFontService,sans-serif" font-weight="400" font-size="16" transform="translate(44.528 333)">(type="document")</text><path d="M199.5 22.5001 333.083 22.5001 333.083 22.5001 390.333 22.5001 428.5 22.5001 428.5 41.75 428.5 48.2964 428.5 50.0002 428.5 55.5001 390.333 55.5001 333.083 55.5001 333.083 55.5001 199.5 55.5001 199.5 50.0002 199.5 41.75 199.5 41.75Z" stroke="#A2520C" stroke-width="2.66667" stroke-linejoin="round" stroke-miterlimit="10" fill="#DD7215" fill-rule="evenodd"/><text fill="#FFFFFF" font-family="Calibri,Calibri_MSFontService,sans-serif" font-weight="400" font-size="16" transform="translate(272.498 34)">Composition</text><text fill="#FFFFFF" font-family="Calibri,Calibri_MSFontService,sans-serif" font-weight="400" font-size="15" transform="translate(279.918 50)">(</text><text fill="#FFFFFF" font-family="Meiryo,Meiryo_MSFontService,sans-serif" font-weight="400" font-size="15" transform="translate(284.418 50)">文書構造</text><text fill="#FFFFFF" font-family="Calibri,Calibri_MSFontService,sans-serif" font-weight="400" font-size="15" transform="translate(343.084 50)">)</text><path d="M616.5 457.5 705.167 457.5 705.167 457.5 743.167 457.5 768.5 457.5 768.5 472.083 768.5 477.043 768.5 478.333 768.5 482.5 743.167 482.5 705.167 482.5 705.167 482.5 616.5 482.5 616.5 478.333 616.5 472.083 616.5 472.083Z" stroke="#437321" stroke-width="2.66667" stroke-linejoin="round" stroke-miterlimit="10" fill="#5E9E31" fill-rule="evenodd"/><text fill="#FFFFFF" font-family="Meiryo,Meiryo_MSFontService,sans-serif" font-weight="400" font-size="15" transform="translate(625.318 472)">自覚症状</text><path d="M283.5 495.5 372.167 495.5 372.167 495.5 410.167 495.5 435.5 495.5 435.5 510.083 435.5 515.043 435.5 516.333 435.5 520.5 410.167 520.5 372.167 520.5 372.167 520.5 283.5 520.5 283.5 516.333 283.5 510.083 283.5 510.083Z" stroke="#437321" stroke-width="2.66667" stroke-linejoin="round" stroke-miterlimit="10" fill="#5E9E31" fill-rule="evenodd"/><text fill="#FFFFFF" font-family="Meiryo,Meiryo_MSFontService,sans-serif" font-weight="400" font-size="15" transform="translate(292.609 511)">検査時使用薬</text><path d="M450.5 420.5 539.167 420.5 539.167 420.5 577.167 420.5 602.5 420.5 602.5 435.083 602.5 440.043 602.5 441.333 602.5 445.5 577.167 445.5 539.167 445.5 539.167 445.5 450.5 445.5 450.5 441.333 450.5 435.083 450.5 435.083Z" stroke="#437321" stroke-width="2.66667" stroke-linejoin="round" stroke-miterlimit="10" fill="#5E9E31" fill-rule="evenodd"/><text fill="#FFFFFF" font-family="Meiryo,Meiryo_MSFontService,sans-serif" font-weight="400" font-size="15" transform="translate(459.501 435)">検査記述</text><path d="M450.5 458.5 539.167 458.5 539.167 458.5 577.167 458.5 602.5 458.5 602.5 472.5 602.5 477.261 602.5 478.5 602.5 482.5 577.167 482.5 539.167 482.5 539.167 482.5 450.5 482.5 450.5 478.5 450.5 472.5 450.5 472.5Z" stroke="#437321" stroke-width="2.66667" stroke-linejoin="round" stroke-miterlimit="10" fill="#5E9E31" fill-rule="evenodd"/><text fill="#FFFFFF" font-family="Meiryo,Meiryo_MSFontService,sans-serif" font-weight="400" font-size="15" transform="translate(459.501 473)">超音波</text><text fill="#FFFFFF" font-family="Meiryo,Meiryo_MSFontService,sans-serif" font-weight="400" font-size="15" transform="translate(503.501 473)">所見</text><path d="M450.5 326.5 539.167 326.5 539.167 326.5 577.167 326.5 602.5 326.5 602.5 341.083 602.5 346.043 602.5 347.333 602.5 351.5 577.167 351.5 539.167 351.5 539.167 351.5 450.5 351.5 450.5 347.333 450.5 341.083 450.5 341.083Z" stroke="#437321" stroke-width="2.66667" stroke-linejoin="round" stroke-miterlimit="10" fill="#5E9E31" fill-rule="evenodd"/><text fill="#FFFFFF" font-family="Meiryo,Meiryo_MSFontService,sans-serif" font-weight="400" font-size="15" transform="translate(459.501 341)">バイタルサイン</text><path d="M285.5 360.5 374.167 360.5 374.167 360.5 412.167 360.5 437.5 360.5 437.5 375.083 437.5 380.043 437.5 381.333 437.5 385.5 412.167 385.5 374.167 385.5 374.167 385.5 285.5 385.5 285.5 381.333 285.5 375.083 285.5 375.083Z" stroke="#437321" stroke-width="2.66667" stroke-linejoin="round" stroke-miterlimit="10" fill="#5E9E31" fill-rule="evenodd"/><text fill="#FFFFFF" font-family="Meiryo,Meiryo_MSFontService,sans-serif" font-weight="400" font-size="15" transform="translate(294.691 375)">解析値（生理検査）</text><path d="M285.5 325.5 374.167 325.5 374.167 325.5 412.167 325.5 437.5 325.5 437.5 340.083 437.5 345.043 437.5 346.333 437.5 350.5 412.167 350.5 374.167 350.5 374.167 350.5 285.5 350.5 285.5 346.333 285.5 340.083 285.5 340.083Z" stroke="#437321" stroke-width="2.66667" stroke-linejoin="round" stroke-miterlimit="10" fill="#5E9E31" fill-rule="evenodd"/><text fill="#FFFFFF" font-family="Meiryo,Meiryo_MSFontService,sans-serif" font-weight="400" font-size="15" transform="translate(294.181 340)">患者付帯情報</text><path d="M284.5 420.5 373.167 420.5 373.167 420.5 411.167 420.5 436.5 420.5 436.5 435.083 436.5 440.043 436.5 441.333 436.5 445.5 411.167 445.5 373.167 445.5 373.167 445.5 284.5 445.5 284.5 441.333 284.5 435.083 284.5 435.083Z" stroke="#437321" stroke-width="2.66667" stroke-linejoin="round" stroke-miterlimit="10" fill="#5E9E31" fill-rule="evenodd"/><text fill="#FFFFFF" font-family="Meiryo,Meiryo_MSFontService,sans-serif" font-weight="400" font-size="15" transform="translate(293.683 435)">検査項目</text><path d="M283.5 458.5 372.167 458.5 372.167 458.5 410.167 458.5 435.5 458.5 435.5 472.5 435.5 477.261 435.5 478.5 435.5 482.5 410.167 482.5 372.167 482.5 372.167 482.5 283.5 482.5 283.5 478.5 283.5 472.5 283.5 472.5Z" stroke="#437321" stroke-width="2.66667" stroke-linejoin="round" stroke-miterlimit="10" fill="#5E9E31" fill-rule="evenodd"/><text fill="#FFFFFF" font-family="Meiryo,Meiryo_MSFontService,sans-serif" font-weight="400" font-size="15" transform="translate(292.609 473)">既往歴</text><path d="M284.5 69.5001 369.083 69.5001 369.083 69.5001 405.333 69.5001 429.5 69.5001 429.5 89.3334 429.5 96.0782 429.5 97.8334 429.5 103.5 405.333 103.5 369.083 103.5 369.083 103.5 284.5 103.5 284.5 97.8334 284.5 89.3334 284.5 89.3334Z" stroke="#A2520C" stroke-width="2.66667" stroke-linejoin="round" stroke-miterlimit="10" fill="#DD7215" fill-rule="evenodd"/><text fill="#FFFFFF" font-family="Calibri,Calibri_MSFontService,sans-serif" font-weight="400" font-size="16" transform="translate(333.374 82)">Patient</text><text fill="#FFFFFF" font-family="Calibri,Calibri_MSFontService,sans-serif" font-weight="400" font-size="15" transform="translate(322.874 98)">(</text><text fill="#FFFFFF" font-family="Meiryo,Meiryo_MSFontService,sans-serif" font-weight="400" font-size="15" transform="translate(327.374 98)">患者情報</text><text fill="#FFFFFF" font-family="Calibri,Calibri_MSFontService,sans-serif" font-weight="400" font-size="15" transform="translate(386.04 98)">)</text><path d="M285.5 109.5 370.083 109.5 370.083 109.5 406.333 109.5 430.5 109.5 430.5 128.75 430.5 135.296 430.5 137 430.5 142.5 406.333 142.5 370.083 142.5 370.083 142.5 285.5 142.5 285.5 137 285.5 128.75 285.5 128.75Z" stroke="#A2520C" stroke-width="2.66667" stroke-linejoin="round" stroke-miterlimit="10" fill="#DD7215" fill-rule="evenodd"/><text fill="#FFFFFF" font-family="Calibri,Calibri_MSFontService,sans-serif" font-weight="400" font-size="16" transform="translate(318.84 122)">Practitioner</text><text fill="#FFFFFF" font-family="Calibri,Calibri_MSFontService,sans-serif" font-weight="400" font-size="15" transform="translate(316.007 138)">(</text><text fill="#FFFFFF" font-family="Meiryo,Meiryo_MSFontService,sans-serif" font-weight="400" font-size="15" transform="translate(320.507 138)">作成責任者</text><text fill="#FFFFFF" font-family="Calibri,Calibri_MSFontService,sans-serif" font-weight="400" font-size="15" transform="translate(393.84 138)">)</text><path d="M283.5 147.5 368.083 147.5 368.083 147.5 404.333 147.5 428.5 147.5 428.5 166.75 428.5 173.296 428.5 175 428.5 180.5 404.333 180.5 368.083 180.5 368.083 180.5 283.5 180.5 283.5 175 283.5 166.75 283.5 166.75Z" stroke="#A2520C" stroke-width="2.66667" stroke-linejoin="round" stroke-miterlimit="10" fill="#DD7215" fill-rule="evenodd"/><text fill="#FFFFFF" font-family="Calibri,Calibri_MSFontService,sans-serif" font-weight="400" font-size="16" transform="translate(314.021 160)">Organization</text><text fill="#FFFFFF" font-family="Calibri,Calibri_MSFontService,sans-serif" font-weight="400" font-size="15" transform="translate(307.101 176)">(</text><text fill="#FFFFFF" font-family="Meiryo,Meiryo_MSFontService,sans-serif" font-weight="400" font-size="15" transform="translate(311.601 176)">作成医療機関</text><text fill="#FFFFFF" font-family="Calibri,Calibri_MSFontService,sans-serif" font-weight="400" font-size="15" transform="translate(399.601 176)">)</text><path d="M462.5 109.5 547.083 109.5 547.083 109.5 583.333 109.5 607.5 109.5 607.5 128.75 607.5 135.296 607.5 137 607.5 142.5 583.333 142.5 547.083 142.5 547.083 142.5 462.5 142.5 462.5 137 462.5 128.75 462.5 128.75Z" stroke="#A2520C" stroke-width="2.66667" stroke-linejoin="round" stroke-miterlimit="10" fill="#DD7215" fill-rule="evenodd"/><text fill="#FFFFFF" font-family="Calibri,Calibri_MSFontService,sans-serif" font-weight="400" font-size="16" transform="translate(512.388 122)">Device</text><text fill="#FFFFFF" font-family="Calibri,Calibri_MSFontService,sans-serif" font-weight="400" font-size="15" transform="translate(485.634 138)">(</text><text fill="#FFFFFF" font-family="Meiryo,Meiryo_MSFontService,sans-serif" font-weight="400" font-size="15" transform="translate(490.134 138)">作成システム</text><text fill="#FFFFFF" font-family="Calibri,Calibri_MSFontService,sans-serif" font-weight="400" font-size="15" transform="translate(578.134 138)">)</text><path d="M284.5 186.5 369.083 186.5 369.083 186.5 405.333 186.5 429.5 186.5 429.5 205.75 429.5 212.296 429.5 214 429.5 219.5 405.333 219.5 369.083 219.5 369.083 219.5 284.5 219.5 284.5 214 284.5 205.75 284.5 205.75Z" stroke="#A2520C" stroke-width="2.66667" stroke-linejoin="round" stroke-miterlimit="10" fill="#DD7215" fill-rule="evenodd"/><text fill="#FFFFFF" font-family="Calibri,Calibri_MSFontService,sans-serif" font-weight="400" font-size="16" transform="translate(315.127 198)">Organization</text><text fill="#FFFFFF" font-family="Calibri,Calibri_MSFontService,sans-serif" font-weight="400" font-size="15" transform="translate(308.207 214)">(</text><text fill="#FFFFFF" font-family="Meiryo,Meiryo_MSFontService,sans-serif" font-weight="400" font-size="15" transform="translate(312.707 214)">管理医療機関</text><text fill="#FFFFFF" font-family="Calibri,Calibri_MSFontService,sans-serif" font-weight="400" font-size="15" transform="translate(400.707 214)">)</text><path d="M520.5 69.5001 605.083 69.5001 605.083 69.5001 641.333 69.5001 665.5 69.5001 665.5 88.7501 665.5 95.2965 665.5 97.0001 665.5 102.5 641.333 102.5 605.083 102.5 605.083 102.5 520.5 102.5 520.5 97.0001 520.5 88.7501 520.5 88.7501Z" stroke="#A2520C" stroke-width="2.66667" stroke-linejoin="round" stroke-miterlimit="10" fill="#DD7215" fill-rule="evenodd"/><text fill="#FFFFFF" font-family="Calibri,Calibri_MSFontService,sans-serif" font-weight="400" font-size="16" transform="translate(550.973 82)">Organization</text><text fill="#FFFFFF" font-family="Calibri,Calibri_MSFontService,sans-serif" font-weight="400" font-size="15" transform="translate(566.053 98)">(</text><text fill="#FFFFFF" font-family="Meiryo,Meiryo_MSFontService,sans-serif" font-weight="400" font-size="15" transform="translate(570.553 98)">所属科</text><text fill="#FFFFFF" font-family="Calibri,Calibri_MSFontService,sans-serif" font-weight="400" font-size="15" transform="translate(614.553 98)">)</text><path d="M284.5 225.5 369.083 225.5 369.083 225.5 405.333 225.5 429.5 225.5 429.5 244.75 429.5 251.296 429.5 253 429.5 258.5 405.333 258.5 369.083 258.5 369.083 258.5 284.5 258.5 284.5 253 284.5 244.75 284.5 244.75Z" stroke="#A2520C" stroke-width="2.66667" stroke-linejoin="round" stroke-miterlimit="10" fill="#DD7215" fill-rule="evenodd"/><text fill="#FFFFFF" font-family="Calibri,Calibri_MSFontService,sans-serif" font-weight="400" font-size="16" transform="translate(318.343 238)">Practitioner</text><text fill="#FFFFFF" font-family="Calibri,Calibri_MSFontService,sans-serif" font-weight="400" font-size="15" transform="translate(300.843 254)">(</text><text fill="#FFFFFF" font-family="Meiryo,Meiryo_MSFontService,sans-serif" font-weight="400" font-size="15" transform="translate(305.343 254)">文書内容責任者</text><text fill="#FFFFFF" font-family="Calibri,Calibri_MSFontService,sans-serif" font-weight="400" font-size="15" transform="translate(408.009 254)">)</text><path d="M520.5 264.5 605.083 264.5 605.083 264.5 641.333 264.5 665.5 264.5 665.5 283.75 665.5 290.297 665.5 292 665.5 297.5 641.333 297.5 605.083 297.5 605.083 297.5 520.5 297.5 520.5 292 520.5 283.75 520.5 283.75Z" stroke="#A2520C" stroke-width="2.66667" stroke-linejoin="round" stroke-miterlimit="10" fill="#DD7215" fill-rule="evenodd"/><text fill="#FFFFFF" font-family="Calibri,Calibri_MSFontService,sans-serif" font-weight="400" font-size="16" transform="translate(539.809 277)">PractitionerRole</text><text fill="#FFFFFF" font-family="Calibri,Calibri_MSFontService,sans-serif" font-weight="400" font-size="15" transform="translate(536.723 293)">(</text><text fill="#FFFFFF" font-family="Meiryo,Meiryo_MSFontService,sans-serif" font-weight="400" font-size="15" transform="translate(541.223 293)">検査実施者役割</text><text fill="#FFFFFF" font-family="Calibri,Calibri_MSFontService,sans-serif" font-weight="400" font-size="15" transform="translate(643.889 293)">)</text><path d="M757.5 265.5 842.083 265.5 842.083 265.5 878.333 265.5 902.5 265.5 902.5 284.167 902.5 290.515 902.5 292.167 902.5 297.5 878.333 297.5 842.083 297.5 842.083 297.5 757.5 297.5 757.5 292.167 757.5 284.167 757.5 284.167Z" stroke="#A2520C" stroke-width="2.66667" stroke-linejoin="round" stroke-miterlimit="10" fill="#DD7215" fill-rule="evenodd"/><text fill="#FFFFFF" font-family="Calibri,Calibri_MSFontService,sans-serif" font-weight="400" font-size="16" transform="translate(791.121 277)">Practitioner</text><text fill="#FFFFFF" font-family="Calibri,Calibri_MSFontService,sans-serif" font-weight="400" font-size="15" transform="translate(788.288 293)">(</text><text fill="#FFFFFF" font-family="Meiryo,Meiryo_MSFontService,sans-serif" font-weight="400" font-size="15" transform="translate(792.788 293)">検査実施者</text><text fill="#FFFFFF" font-family="Calibri,Calibri_MSFontService,sans-serif" font-weight="400" font-size="15" transform="translate(866.121 293)">)</text><path d="M884.5 338.5 969.083 338.5 969.083 338.5 1005.33 338.5 1029.5 338.5 1029.5 357.75 1029.5 364.297 1029.5 366 1029.5 371.5 1005.33 371.5 969.083 371.5 969.083 371.5 884.5 371.5 884.5 366 884.5 357.75 884.5 357.75Z" stroke="#A2520C" stroke-width="2.66667" stroke-linejoin="round" stroke-miterlimit="10" fill="#DD7215" fill-rule="evenodd"/><text fill="#FFFFFF" font-family="Calibri,Calibri_MSFontService,sans-serif" font-weight="400" font-size="16" transform="translate(918.176 351)">Practitioner</text><text fill="#FFFFFF" font-family="Calibri,Calibri_MSFontService,sans-serif" font-weight="400" font-size="15" transform="translate(930.009 367)">(</text><text fill="#FFFFFF" font-family="Meiryo,Meiryo_MSFontService,sans-serif" font-weight="400" font-size="15" transform="translate(934.509 367)">測定者</text><text fill="#FFFFFF" font-family="Calibri,Calibri_MSFontService,sans-serif" font-weight="400" font-size="15" transform="translate(978.509 367)">)</text><path d="M1063.5 338.5 1148.08 338.5 1148.08 338.5 1184.33 338.5 1208.5 338.5 1208.5 357.75 1208.5 364.297 1208.5 366 1208.5 371.5 1184.33 371.5 1148.08 371.5 1148.08 371.5 1063.5 371.5 1063.5 366 1063.5 357.75 1063.5 357.75Z" stroke="#A2520C" stroke-width="2.66667" stroke-linejoin="round" stroke-miterlimit="10" fill="#DD7215" fill-rule="evenodd"/><text fill="#FFFFFF" font-family="Calibri,Calibri_MSFontService,sans-serif" font-weight="400" font-size="16" transform="translate(1113.53 351)">Device</text><text fill="#FFFFFF" font-family="Calibri,Calibri_MSFontService,sans-serif" font-weight="400" font-size="15" transform="translate(1086.78 367)">(</text><text fill="#FFFFFF" font-family="Meiryo,Meiryo_MSFontService,sans-serif" font-weight="400" font-size="15" transform="translate(1091.28 367)">測定システム</text><text fill="#FFFFFF" font-family="Calibri,Calibri_MSFontService,sans-serif" font-weight="400" font-size="15" transform="translate(1179.28 367)">)</text><path d="M884.5 394.5 969.083 394.5 969.083 394.5 1005.33 394.5 1029.5 394.5 1029.5 413.75 1029.5 420.297 1029.5 422 1029.5 427.5 1005.33 427.5 969.083 427.5 969.083 427.5 884.5 427.5 884.5 422 884.5 413.75 884.5 413.75Z" stroke="#A2520C" stroke-width="2.66667" stroke-linejoin="round" stroke-miterlimit="10" fill="#DD7215" fill-rule="evenodd"/><text fill="#FFFFFF" font-family="Calibri,Calibri_MSFontService,sans-serif" font-weight="400" font-size="16" transform="translate(916.762 407)">Observation</text><text fill="#FFFFFF" font-family="Calibri,Calibri_MSFontService,sans-serif" font-weight="400" font-size="15" transform="translate(905.176 423)">(</text><text fill="#FFFFFF" font-family="Meiryo,Meiryo_MSFontService,sans-serif" font-weight="400" font-size="15" transform="translate(909.676 423)">測定値</text><text fill="#FFFFFF" font-family="Calibri,Calibri_MSFontService,sans-serif" font-weight="400" font-size="15" transform="translate(953.676 423)">/</text><text fill="#FFFFFF" font-family="Meiryo,Meiryo_MSFontService,sans-serif" font-weight="400" font-size="15" transform="translate(959.342 423)">解析値</text><text fill="#FFFFFF" font-family="Calibri,Calibri_MSFontService,sans-serif" font-weight="400" font-size="15" transform="translate(1003.34 423)">)</text><path d="M520.5 558.5 605.083 558.5 605.083 558.5 641.333 558.5 665.5 558.5 665.5 578.917 665.5 585.86 665.5 587.667 665.5 593.5 641.333 593.5 605.083 593.5 605.083 593.5 520.5 593.5 520.5 587.667 520.5 578.917 520.5 578.917Z" stroke="#A2520C" stroke-width="2.66667" stroke-linejoin="round" stroke-miterlimit="10" fill="#DD7215" fill-rule="evenodd"/><text fill="#FFFFFF" font-family="Calibri,Calibri_MSFontService,sans-serif" font-weight="400" font-size="16" transform="translate(532.889 571)">DocumentReferen</text><text fill="#FFFFFF" font-family="Calibri,Calibri_MSFontService,sans-serif" font-weight="400" font-size="16" transform="translate(551.309 588)">ce</text><text fill="#FFFFFF" font-family="Calibri,Calibri_MSFontService,sans-serif" font-weight="400" font-size="15" transform="translate(566.143 588)">(</text><text fill="#FFFFFF" font-family="Meiryo,Meiryo_MSFontService,sans-serif" font-weight="400" font-size="15" transform="translate(570.643 588)">外部参照</text><text fill="#FFFFFF" font-family="Calibri,Calibri_MSFontService,sans-serif" font-weight="400" font-size="15" transform="translate(629.309 588)">)</text><path d="M697.5 557.5 782.083 557.5 782.083 557.5 818.333 557.5 842.5 557.5 842.5 578.5 842.5 585.642 842.5 587.5 842.5 593.5 818.333 593.5 782.083 593.5 782.083 593.5 697.5 593.5 697.5 587.5 697.5 578.5 697.5 578.5Z" stroke="#A2520C" stroke-width="2.66667" stroke-linejoin="round" stroke-miterlimit="10" fill="#DD7215" fill-rule="evenodd"/><text fill="#FFFFFF" font-family="Calibri,Calibri_MSFontService,sans-serif" font-weight="400" font-size="16" transform="translate(749.128 572)">Binary</text><text fill="#FFFFFF" font-family="Calibri,Calibri_MSFontService,sans-serif" font-weight="400" font-size="15" transform="translate(735.795 588)">(</text><text fill="#FFFFFF" font-family="Meiryo,Meiryo_MSFontService,sans-serif" font-weight="400" font-size="15" transform="translate(740.295 588)">外部参照</text><text fill="#FFFFFF" font-family="Calibri,Calibri_MSFontService,sans-serif" font-weight="400" font-size="15" transform="translate(798.961 588)">)</text><path d="M450.5 495.5 539.167 495.5 539.167 495.5 577.167 495.5 602.5 495.5 602.5 510.083 602.5 515.043 602.5 516.333 602.5 520.5 577.167 520.5 539.167 520.5 539.167 520.5 450.5 520.5 450.5 516.333 450.5 510.083 450.5 510.083Z" stroke="#437321" stroke-width="2.66667" stroke-linejoin="round" stroke-miterlimit="10" fill="#5E9E31" fill-rule="evenodd"/><text fill="#FFFFFF" font-family="Meiryo,Meiryo_MSFontService,sans-serif" font-weight="400" font-size="15" transform="translate(459.693 511)">検査</text><text fill="#FFFFFF" font-family="Meiryo,Meiryo_MSFontService,sans-serif" font-weight="400" font-size="15" transform="translate(489.026 511)">所見</text><path d="M616.5 420.5 705.167 420.5 705.167 420.5 743.167 420.5 768.5 420.5 768.5 435.083 768.5 440.043 768.5 441.333 768.5 445.5 743.167 445.5 705.167 445.5 705.167 445.5 616.5 445.5 616.5 441.333 616.5 435.083 616.5 435.083Z" stroke="#437321" stroke-width="2.66667" stroke-linejoin="round" stroke-miterlimit="10" fill="#5E9E31" fill-rule="evenodd"/><text fill="#FFFFFF" font-family="Meiryo,Meiryo_MSFontService,sans-serif" font-weight="400" font-size="15" transform="translate(625.318 435)">医師所見</text><path d="M283.5 564.5 372.167 564.5 372.167 564.5 410.167 564.5 435.5 564.5 435.5 579.083 435.5 584.043 435.5 585.333 435.5 589.5 410.167 589.5 372.167 589.5 372.167 589.5 283.5 589.5 283.5 585.333 283.5 579.083 283.5 579.083Z" stroke="#437321" stroke-width="2.66667" stroke-linejoin="round" stroke-miterlimit="10" fill="#5E9E31" fill-rule="evenodd"/><text fill="#FFFFFF" font-family="Meiryo,Meiryo_MSFontService,sans-serif" font-weight="400" font-size="15" transform="translate(292.609 579)">外部参照</text><text font-family="IBM Plex Sans,IBM Plex Sans_MSFontService,sans-serif" font-weight="400" font-size="14" transform="translate(213.59 79)">subject</text><text font-family="IBM Plex Sans,IBM Plex Sans_MSFontService,sans-serif" font-weight="400" font-size="14" transform="translate(213.201 118)">author</text><path d="M0-1 30.045-1 30.045 69.8232 28.045 69.8232 28.045 0 29.045 1 0 1ZM33.045 68.4899 29.045 76.4899 25.045 68.4899Z" transform="matrix(1.83697e-16 1 1 -1.83697e-16 208 57)"/><path d="M0-1 69.6249-1 69.6249 70.2897 67.6249 70.2897 67.6249 0 68.6249 1 0 1ZM72.6249 68.9563 68.6249 76.9563 64.6249 68.9563Z" transform="matrix(1.83697e-16 1 1 -1.83697e-16 208 57.0001)"/><path d="M0-1 107.773-1 107.773 68.7175 105.773 68.7175 105.773 0 106.773 1 0 1ZM110.773 67.3841 106.773 75.3841 102.773 67.3841Z" transform="matrix(1.83697e-16 1 1 -1.83697e-16 208 56.9999)"/><text font-family="IBM Plex Sans,IBM Plex Sans_MSFontService,sans-serif" font-weight="400" font-size="14" transform="translate(213.201 157)">author</text><text font-family="IBM Plex Sans,IBM Plex Sans_MSFontService,sans-serif" font-weight="400" font-size="14" transform="translate(213.201 195)">custodian</text><path d="M0-1 146.096-1 146.096 69.8232 144.096 69.8232 144.096 0 145.096 1 0 1ZM149.096 68.4898 145.096 76.4898 141.096 68.4898Z" transform="matrix(1.83697e-16 1 1 -1.83697e-16 208 57)"/><text font-family="IBM Plex Sans,IBM Plex Sans_MSFontService,sans-serif" font-weight="400" font-size="14" transform="translate(213.201 221)">attester.</text><text font-family="IBM Plex Sans,IBM Plex Sans_MSFontService,sans-serif" font-weight="400" font-size="14" transform="translate(213.201 236)">party</text><path d="M0-1 185.572-1 185.572 69.7921 183.572 69.7921 183.572 0 184.572 1 0 1ZM188.572 68.4587 184.572 76.4587 180.572 68.4587Z" transform="matrix(1.83697e-16 1 1 -1.83697e-16 208 57)"/><path d="M0-1 225.151-1 225.151 69.7921 223.151 69.7921 223.151 0 224.151 1 0 1ZM228.151 68.4587 224.151 76.4587 220.151 68.4587Z" transform="matrix(1.83697e-16 1 1 -1.83697e-16 208 57)"/><text font-family="IBM Plex Sans,IBM Plex Sans_MSFontService,sans-serif" font-weight="400" font-size="14" transform="translate(215.143 260)">event.</text><text font-family="IBM Plex Sans,IBM Plex Sans_MSFontService,sans-serif" font-weight="400" font-size="14" transform="translate(215.143 275)">detail</text><text font-family="IBM Plex Sans,IBM Plex Sans_MSFontService,sans-serif" font-weight="400" font-size="14" transform="translate(675.916 274)">practitioner</text><text font-family="IBM Plex Sans,IBM Plex Sans_MSFontService,sans-serif" font-weight="400" font-size="14" transform="translate(435.187 63)">managing</text><text font-family="IBM Plex Sans,IBM Plex Sans_MSFontService,sans-serif" font-weight="400" font-size="14" transform="translate(435.187 80)">Organization</text><text font-family="IBM Plex Sans,IBM Plex Sans_MSFontService,sans-serif" font-weight="400" font-size="14" transform="translate(438.868 131)">or</text><text font-family="IBM Plex Sans,IBM Plex Sans_MSFontService,sans-serif" font-weight="400" font-size="14" transform="translate(212.565 464)">section</text><path d="M0-1 414.395-1 414.395 53.9964 412.395 53.9964 412.395 0 413.395 1 0 1ZM417.395 52.6631 413.395 60.6631 409.395 52.6631Z" transform="matrix(1.83697e-16 1 1 -1.83697e-16 208 57)"/><path d="M0-1 299.435-1 299.435 53.9964 297.435 53.9964 297.435 0 298.435 1 0 1ZM302.435 52.6631 298.435 60.6631 294.435 52.6631Z" transform="matrix(1.83697e-16 1 1 -1.83697e-16 208 57)"/><text font-family="IBM Plex Sans,IBM Plex Sans_MSFontService,sans-serif" font-weight="400" font-size="14" transform="translate(213.59 332)">section</text><rect x="268.5" y="316.5" width="513" height="79" stroke="#000000" stroke-width="3" stroke-linecap="square" stroke-miterlimit="8" stroke-dasharray="9 3" fill="none"/><rect x="268.5" y="409.5" width="513" height="123" stroke="#000000" stroke-width="3" stroke-linecap="square" stroke-miterlimit="8" stroke-dasharray="9 3" fill="none"/><path d="M0-1 522.88-1 522.88 69.4571 520.88 69.4571 520.88 0 521.88 1 0 1ZM525.88 68.1238 521.88 76.1238 517.88 68.1238Z" transform="matrix(1.83697e-16 1 1 -1.83697e-16 207 55)"/><text font-family="IBM Plex Sans,IBM Plex Sans_MSFontService,sans-serif" font-weight="400" font-size="14" transform="translate(215.277 570)">section</text><text font-family="IBM Plex Sans,IBM Plex Sans_MSFontService,sans-serif" font-weight="400" font-size="14" transform="translate(673.782 581)">or</text><text font-family="IBM Plex Sans,IBM Plex Sans_MSFontService,sans-serif" font-weight="400" font-size="14" transform="translate(839.079 403)">entry</text><text font-family="IBM Plex Sans,IBM Plex Sans_MSFontService,sans-serif" font-weight="400" font-size="14" transform="translate(457.369 569)">entry</text><text font-family="IBM Plex Sans,IBM Plex Sans_MSFontService,sans-serif" font-weight="400" font-size="14" transform="translate(1039.93 359)">or</text><text font-family="IBM Plex Sans,IBM Plex Sans_MSFontService,sans-serif" font-weight="400" font-size="14" transform="translate(834.575 348)">author</text><path d="M0.00772842-0.99997 96.1052-0.257267 96.0897 1.74267-0.00772842 0.99997ZM94.795-3.26748 102.764 0.794226 94.7332 4.73228Z" transform="matrix(1 0 0 -1 781 355.794)"/><path d="M998.5 34.5001 1032.33 34.5001 1032.33 34.5001 1046.83 34.5001 1056.5 34.5001 1056.5 44.4167 1056.5 47.7891 1056.5 48.6667 1056.5 51.5001 1046.83 51.5001 1032.33 51.5001 1032.33 51.5001 998.5 51.5001 998.5 48.6667 998.5 44.4167 998.5 44.4167Z" stroke="#A2520C" stroke-width="2.66667" stroke-linejoin="round" stroke-miterlimit="10" fill="#DD7215" fill-rule="evenodd"/><path d="M998.5 61.5001 1032.33 61.5001 1032.33 61.5001 1046.83 61.5001 1056.5 61.5001 1056.5 71.4167 1056.5 74.7891 1056.5 75.6667 1056.5 78.5001 1046.83 78.5001 1032.33 78.5001 1032.33 78.5001 998.5 78.5001 998.5 75.6667 998.5 71.4167 998.5 71.4167Z" stroke="#437321" stroke-width="2.66667" stroke-linejoin="round" stroke-miterlimit="10" fill="#5E9E31" fill-rule="evenodd"/><text font-family="MS Gothic,MS Gothic_MSFontService,sans-serif" font-weight="400" font-size="14" transform="translate(1059.32 47)">：</text><text font-family="IBM Plex Sans,IBM Plex Sans_MSFontService,sans-serif" font-weight="400" font-size="14" transform="translate(1073.32 47)">FHIR</text><text font-family="MS Gothic,MS Gothic_MSFontService,sans-serif" font-weight="400" font-size="14" transform="translate(1105.65 47)">リソース</text><text font-family="MS Gothic,MS Gothic_MSFontService,sans-serif" font-weight="400" font-size="14" transform="translate(1059.32 73)">：</text><text font-family="IBM Plex Sans,IBM Plex Sans_MSFontService,sans-serif" font-weight="400" font-size="14" transform="translate(1073.32 73)">Composition</text><text font-family="MS Gothic,MS Gothic_MSFontService,sans-serif" font-weight="400" font-size="14" transform="translate(1152.48 73)">リソースの</text><text font-family="MS Gothic,MS Gothic_MSFontService,sans-serif" font-weight="400" font-size="14" transform="translate(1073.32 90)">セクション</text><path d="M0.0024329-0.999997 83.9999-0.795639 83.9951 1.20435-0.0024329 0.999997ZM82.674-3.79887 90.6642 0.220577 82.6545 4.2011Z" transform="matrix(1 0 0 -1 429 86.2206)"/><path d="M665.003 280 750.049 280.217 750.044 282.217 664.997 282ZM748.724 277.213 756.714 281.234 748.704 285.213Z"/><path d="M0.00902502-0.999959 78.1195-0.294982 78.1015 1.70494-0.00902502 0.999959ZM76.8133-3.30689 84.7769 0.765144 76.7411 4.69278Z" transform="matrix(1 0 0 -1 435 576.765)"/><path d="M781 354 833.382 354 833.382 410.148 832.382 409.148 877.097 409.148 877.097 411.147 831.382 411.147 831.382 355 832.382 356 781 356ZM875.764 406.148 883.764 410.148 875.764 414.147Z"/><path d="M884.5 455.5 969.083 455.5 969.083 455.5 1005.33 455.5 1029.5 455.5 1029.5 474.75 1029.5 481.297 1029.5 483 1029.5 488.5 1005.33 488.5 969.083 488.5 969.083 488.5 884.5 488.5 884.5 483 884.5 474.75 884.5 474.75Z" stroke="#A2520C" stroke-width="2.66667" stroke-linejoin="round" stroke-miterlimit="10" fill="#DD7215" fill-rule="evenodd"/><text fill="#FFFFFF" font-family="Calibri,Calibri_MSFontService,sans-serif" font-weight="400" font-size="16" transform="translate(918.176 468)">Practitioner</text><text fill="#FFFFFF" font-family="Calibri,Calibri_MSFontService,sans-serif" font-weight="400" font-size="15" transform="translate(930.009 484)">(</text><text fill="#FFFFFF" font-family="Meiryo,Meiryo_MSFontService,sans-serif" font-weight="400" font-size="15" transform="translate(934.509 484)">測定者</text><text fill="#FFFFFF" font-family="Calibri,Calibri_MSFontService,sans-serif" font-weight="400" font-size="15" transform="translate(978.509 484)">)</text><path d="M1063.5 455.5 1148.08 455.5 1148.08 455.5 1184.33 455.5 1208.5 455.5 1208.5 474.75 1208.5 481.297 1208.5 483 1208.5 488.5 1184.33 488.5 1148.08 488.5 1148.08 488.5 1063.5 488.5 1063.5 483 1063.5 474.75 1063.5 474.75Z" stroke="#A2520C" stroke-width="2.66667" stroke-linejoin="round" stroke-miterlimit="10" fill="#DD7215" fill-rule="evenodd"/><text fill="#FFFFFF" font-family="Calibri,Calibri_MSFontService,sans-serif" font-weight="400" font-size="16" transform="translate(1113.53 468)">Device</text><text fill="#FFFFFF" font-family="Calibri,Calibri_MSFontService,sans-serif" font-weight="400" font-size="15" transform="translate(1086.78 484)">(</text><text fill="#FFFFFF" font-family="Meiryo,Meiryo_MSFontService,sans-serif" font-weight="400" font-size="15" transform="translate(1091.28 484)">測定システム</text><text fill="#FFFFFF" font-family="Calibri,Calibri_MSFontService,sans-serif" font-weight="400" font-size="15" transform="translate(1179.28 484)">)</text><text font-family="IBM Plex Sans,IBM Plex Sans_MSFontService,sans-serif" font-weight="400" font-size="14" transform="translate(1039.93 476)">or</text><text font-family="IBM Plex Sans,IBM Plex Sans_MSFontService,sans-serif" font-weight="400" font-size="14" transform="translate(834.575 465)">author</text><path d="M781.012 469 877.11 470.188 877.085 472.188 780.988 471ZM875.814 467.172 883.764 471.271 875.715 475.171Z"/><path d="M636.5 503.5 668.833 503.5 668.833 503.5 717.333 503.5 830.5 503.5 830.5 510.5 830.5 510.5 830.5 521 830.5 545.5 717.333 545.5 668.833 545.5 668.833 545.5 636.5 545.5 636.5 521 614.98 505.933 636.5 510.5Z" stroke="#172C51" stroke-width="1.33333" stroke-miterlimit="8" fill="#4472C4" fill-rule="evenodd"/><text fill="#FFFFFF" font-family="Yu Gothic,Yu Gothic_MSFontService,sans-serif" font-weight="400" font-size="13" transform="translate(645.997 520)">component/</text><text fill="#FFFFFF" font-family="Yu Gothic,Yu Gothic_MSFontService,sans-serif" font-weight="400" font-size="13" transform="translate(719.164 520)">structuredBody</text><text fill="#FFFFFF" font-family="Yu Gothic,Yu Gothic_MSFontService,sans-serif" font-weight="400" font-size="13" transform="translate(810.664 520)">/</text><text fill="#FFFFFF" font-family="Yu Gothic,Yu Gothic_MSFontService,sans-serif" font-weight="400" font-size="13" transform="translate(645.997 536)">component/section</text><path d="M692.5 75.5001 708.833 75.5001 708.833 75.5001 733.333 75.5001 790.5 75.5001 790.5 88.9168 790.5 88.9168 790.5 94.6668 790.5 98.5001 733.333 98.5001 708.833 98.5001 708.833 98.5001 692.5 98.5001 692.5 94.6668 671.683 88.7209 692.5 88.9168Z" stroke="#172C51" stroke-width="1.33333" stroke-miterlimit="8" fill="#4472C4" fill-rule="evenodd"/><text fill="#FFFFFF" font-family="Yu Gothic,Yu Gothic_MSFontService,sans-serif" font-weight="400" font-size="13" transform="translate(701.696 91)">recordTarget</text><path d="M633.5 112.5 644.667 112.5 644.667 112.5 661.417 112.5 700.5 112.5 700.5 125.917 700.5 125.917 700.5 131.667 700.5 135.5 661.417 135.5 644.667 135.5 644.667 135.5 633.5 135.5 633.5 131.667 610.67 124.857 633.5 125.917Z" stroke="#172C51" stroke-width="1.33333" stroke-miterlimit="8" fill="#4472C4" fill-rule="evenodd"/><text fill="#FFFFFF" font-family="Yu Gothic,Yu Gothic_MSFontService,sans-serif" font-weight="400" font-size="13" transform="translate(642.695 128)">author</text><path d="M451.5 154.5 463 154.5 463 154.5 480.25 154.5 520.5 154.5 520.5 167.917 520.5 167.917 520.5 173.667 520.5 177.5 480.25 177.5 463 177.5 463 177.5 451.5 177.5 451.5 173.667 428.173 170.311 451.5 167.917Z" stroke="#172C51" stroke-width="1.33333" stroke-miterlimit="8" fill="#4472C4" fill-rule="evenodd"/><text fill="#FFFFFF" font-family="Yu Gothic,Yu Gothic_MSFontService,sans-serif" font-weight="400" font-size="13" transform="translate(460.737 169)">author</text><path d="M451.5 188.5 465.5 188.5 465.5 188.5 486.5 188.5 535.5 188.5 535.5 201.917 535.5 201.917 535.5 207.667 535.5 211.5 486.5 211.5 465.5 211.5 465.5 211.5 451.5 211.5 451.5 207.667 430.211 202.584 451.5 201.917Z" stroke="#172C51" stroke-width="1.33333" stroke-miterlimit="8" fill="#4472C4" fill-rule="evenodd"/><text fill="#FFFFFF" font-family="Yu Gothic,Yu Gothic_MSFontService,sans-serif" font-weight="400" font-size="13" transform="translate(460.737 203)">custodian</text><path d="M451.5 222.5 469.833 222.5 469.833 222.5 497.333 222.5 561.5 222.5 561.5 235.917 561.5 235.917 561.5 241.667 561.5 245.5 497.333 245.5 469.833 245.5 469.833 245.5 451.5 245.5 451.5 241.667 431.603 235.721 451.5 235.917Z" stroke="#172C51" stroke-width="1.33333" stroke-miterlimit="8" fill="#4472C4" fill-rule="evenodd"/><text fill="#FFFFFF" font-family="Yu Gothic,Yu Gothic_MSFontService,sans-serif" font-weight="400" font-size="13" transform="translate(460.737 238)">authenticator</text><path d="M840.5 214.5 861.833 214.5 861.833 214.5 893.833 214.5 968.5 214.5 968.5 230.25 968.5 230.25 968.5 237 968.5 241.5 893.833 241.5 858.848 262.502 861.833 241.5 840.5 241.5 840.5 237 840.5 230.25 840.5 230.25Z" stroke="#172C51" stroke-width="1.33333" stroke-miterlimit="8" fill="#4472C4" fill-rule="evenodd"/><text fill="#FFFFFF" font-family="Yu Gothic,Yu Gothic_MSFontService,sans-serif" font-weight="400" font-size="13" transform="translate(849.749 232)">documentationOf</text><path d="M1020.5 272.5 1053 272.5 1053 272.5 1101.75 272.5 1215.5 272.5 1215.5 297.583 1215.5 297.583 1215.5 308.333 1215.5 315.5 1101.75 315.5 1048.45 333.602 1053 315.5 1020.5 315.5 1020.5 308.333 1020.5 297.583 1020.5 297.583Z" stroke="#172C51" stroke-width="1.33333" stroke-miterlimit="8" fill="#4472C4" fill-rule="evenodd"/><text fill="#FFFFFF" font-family="Yu Gothic,Yu Gothic_MSFontService,sans-serif" font-weight="400" font-size="13" transform="translate(1029.65 290)">component/</text><text fill="#FFFFFF" font-family="Yu Gothic,Yu Gothic_MSFontService,sans-serif" font-weight="400" font-size="13" transform="translate(1102.82 290)">structuredBody</text><text fill="#FFFFFF" font-family="Yu Gothic,Yu Gothic_MSFontService,sans-serif" font-weight="400" font-size="13" transform="translate(1194.32 290)">/</text><text fill="#FFFFFF" font-family="Yu Gothic,Yu Gothic_MSFontService,sans-serif" font-weight="400" font-size="13" transform="translate(1029.65 306)">component/section/author</text><path d="M1053.5 385.5 1085.83 385.5 1085.83 385.5 1134.33 385.5 1247.5 385.5 1247.5 394.167 1247.5 394.167 1247.5 407.167 1247.5 437.5 1134.33 437.5 1085.83 437.5 1085.83 437.5 1053.5 437.5 1053.5 407.167 1034.77 409.936 1053.5 394.167Z" stroke="#172C51" stroke-width="1.33333" stroke-miterlimit="8" fill="#4472C4" fill-rule="evenodd"/><text fill="#FFFFFF" font-family="Yu Gothic,Yu Gothic_MSFontService,sans-serif" font-weight="400" font-size="13" transform="translate(1062.15 399)">component/</text><text fill="#FFFFFF" font-family="Yu Gothic,Yu Gothic_MSFontService,sans-serif" font-weight="400" font-size="13" transform="translate(1135.32 399)">structuredBody</text><text fill="#FFFFFF" font-family="Yu Gothic,Yu Gothic_MSFontService,sans-serif" font-weight="400" font-size="13" transform="translate(1226.82 399)">/</text><text fill="#FFFFFF" font-family="Yu Gothic,Yu Gothic_MSFontService,sans-serif" font-weight="400" font-size="13" transform="translate(1062.15 415)">component/section/entry/ob</text><text fill="#FFFFFF" font-family="Yu Gothic,Yu Gothic_MSFontService,sans-serif" font-weight="400" font-size="13" transform="translate(1062.15 430)">servation</text><path d="M633.5 614.5 672.167 614.5 677.724 604.247 730.167 614.5 865.5 614.5 865.5 623.167 865.5 623.167 865.5 636.167 865.5 666.5 730.167 666.5 672.167 666.5 672.167 666.5 633.5 666.5 633.5 636.167 633.5 623.167 633.5 623.167Z" stroke="#172C51" stroke-width="1.33333" stroke-miterlimit="8" fill="#4472C4" fill-rule="evenodd"/><text fill="#FFFFFF" font-family="Yu Gothic,Yu Gothic_MSFontService,sans-serif" font-weight="400" font-size="13" transform="translate(642.695 629)">component/</text><text fill="#FFFFFF" font-family="Yu Gothic,Yu Gothic_MSFontService,sans-serif" font-weight="400" font-size="13" transform="translate(715.862 629)">structuredBody</text><text fill="#FFFFFF" font-family="Yu Gothic,Yu Gothic_MSFontService,sans-serif" font-weight="400" font-size="13" transform="translate(807.362 629)">/</text><text fill="#FFFFFF" font-family="Yu Gothic,Yu Gothic_MSFontService,sans-serif" font-weight="400" font-size="13" transform="translate(642.695 645)">component/section/entry/observat</text><text fill="#FFFFFF" font-family="Yu Gothic,Yu Gothic_MSFontService,sans-serif" font-weight="400" font-size="13" transform="translate(642.695 660)">ion/reference/</text><text fill="#FFFFFF" font-family="Yu Gothic,Yu Gothic_MSFontService,sans-serif" font-weight="400" font-size="13" transform="translate(730.862 660)">externalDocument</text><path d="M998.5 100.5 1008.17 100.5 1008.17 100.5 1022.67 100.5 1056.5 100.5 1056.5 111 1056.5 111 1056.5 115.5 1056.5 118.5 1022.67 118.5 1008.17 118.5 1008.17 118.5 998.5 118.5 998.5 115.5 986.18 110.847 998.5 111Z" stroke="#172C51" stroke-width="1.33333" stroke-miterlimit="8" fill="#4472C4" fill-rule="evenodd"/><text font-family="MS Gothic,MS Gothic_MSFontService,sans-serif" font-weight="400" font-size="14" transform="translate(1059.45 115)">：</text><text font-family="IBM Plex Sans,IBM Plex Sans_MSFontService,sans-serif" font-weight="400" font-size="14" transform="translate(1073.45 115)">CDA R2</text><text font-family="MS Gothic,MS Gothic_MSFontService,sans-serif" font-weight="400" font-size="14" transform="translate(1121.11 115)">の対応要素</text><text font-family="IBM Plex Sans,IBM Plex Sans_MSFontService,sans-serif" font-weight="400" font-size="14" transform="translate(1059.45 132)">(/</text><text font-family="IBM Plex Sans,IBM Plex Sans_MSFontService,sans-serif" font-weight="400" font-size="14" transform="translate(1069.45 132)">ClinicalDocument</text><text font-family="IBM Plex Sans,IBM Plex Sans_MSFontService,sans-serif" font-weight="400" font-size="14" transform="translate(1180.11 132)">/</text><text font-family="MS Gothic,MS Gothic_MSFontService,sans-serif" font-weight="400" font-size="14" transform="translate(1185.45 132)">は省略</text><text font-family="IBM Plex Sans,IBM Plex Sans_MSFontService,sans-serif" font-weight="400" font-size="14" transform="translate(1227.45 132)">)</text><path d="M284.5 265.5 369.083 265.5 369.083 265.5 405.333 265.5 429.5 265.5 429.5 284.75 429.5 291.297 429.5 293 429.5 298.5 405.333 298.5 369.083 298.5 369.083 298.5 284.5 298.5 284.5 293 284.5 284.75 284.5 284.75Z" stroke="#A2520C" stroke-width="2.66667" stroke-linejoin="round" stroke-miterlimit="10" fill="#DD7215" fill-rule="evenodd"/><text fill="#FFFFFF" font-family="Calibri,Calibri_MSFontService,sans-serif" font-weight="400" font-size="16" transform="translate(323.009 277)">Procedure</text><path d="M322.763 279.428 345.429 279.428 368.096 279.428 390.763 279.428 390.763 280.428 368.096 280.428 345.429 280.428 322.763 280.428Z" fill="#FFFFFF" fill-rule="evenodd"/><text fill="#FFFFFF" font-family="Calibri,Calibri_MSFontService,sans-serif" font-weight="400" font-size="15" transform="translate(308.176 293)">(</text><text fill="#FFFFFF" font-family="Meiryo,Meiryo_MSFontService,sans-serif" font-weight="400" font-size="15" transform="translate(312.676 293)">検査実施情報</text><text fill="#FFFFFF" font-family="Calibri,Calibri_MSFontService,sans-serif" font-weight="400" font-size="15" transform="translate(400.676 293)">)</text><path d="M307.763 295.428 332.013 295.428 356.263 295.428 380.513 295.428 404.763 295.428 404.763 296.428 380.513 296.428 356.263 296.428 332.013 296.428 307.763 296.428Z" fill="#FFFFFF" fill-rule="evenodd"/><text font-family="IBM Plex Sans,IBM Plex Sans_MSFontService,sans-serif" font-weight="400" font-size="14" transform="translate(440.275 261)">performer.</text><text font-family="IBM Plex Sans,IBM Plex Sans_MSFontService,sans-serif" font-weight="400" font-size="14" transform="translate(440.275 276)">actor</text><path d="M428.003 280 513.049 280.217 513.044 282.217 427.997 282ZM511.724 277.213 519.714 281.234 511.704 285.213Z"/><path d="M617.5 326.5 706.167 326.5 706.167 326.5 744.167 326.5 769.5 326.5 769.5 341.083 769.5 346.043 769.5 347.333 769.5 351.5 744.167 351.5 706.167 351.5 706.167 351.5 617.5 351.5 617.5 347.333 617.5 341.083 617.5 341.083Z" stroke="#437321" stroke-width="2.66667" stroke-linejoin="round" stroke-miterlimit="10" fill="#5E9E31" fill-rule="evenodd"/><text fill="#FFFFFF" font-family="Meiryo,Meiryo_MSFontService,sans-serif" font-weight="400" font-size="15" transform="translate(626.372 341)">計測値（生理検査）</text></g></svg>